<?xml version="1.0" standalone="no"?>
<!DOCTYPE svg PUBLIC "-//W3C//DTD SVG 1.1//EN" "http://www.w3.org/Graphics/SVG/1.1/DTD/svg11.dtd" >
<!--
2018-8-13: Created with FontForge (http://fontforge.org)
-->
<svg xmlns="http://www.w3.org/2000/svg" xmlns:xlink="http://www.w3.org/1999/xlink" version="1.1">
<metadata>
Created by FontForge 20160405 at Mon Aug 13 05:07:26 2018
 By Apache
Copyright (c) 2018, Apache
</metadata>
<defs>
<font id="Flaticon" horiz-adv-x="512" >
  <font-face 
    font-family="Flaticon"
    font-weight="400"
    font-stretch="normal"
    units-per-em="512"
    panose-1="2 0 5 3 0 0 0 0 0 0"
    ascent="448"
    descent="-64"
    bbox="0 -64.001 512.001 448"
    underline-thickness="25.6"
    underline-position="-51.2"
    unicode-range="U+0020-F13F"
  />
    <missing-glyph />
    <glyph glyph-name="space" unicode=" " horiz-adv-x="200" 
 />
    <glyph glyph-name="uniF105" unicode="&#xf105;" 
d="M416 448c53.0312 0 96 -42.9688 96 -96v-320c0 -53.0312 -42.9688 -96 -96 -96h-320c-53.0312 0 -96 42.9688 -96 96v320c0 53.0312 42.9688 96 96 96h320zM402.983 172.269l6.51855 59.7461h-54.4297l0.0986328 33.5361c0 15.9512 1.49609 24.4775 24.3789 24.4775
h34.5986v59.5098h-59.5684c-58.7822 0 -79.498 -29.6172 -79.5176 -79.4971v-38.0459h-31.0352v-59.7266h31.0352v-177.31h80.0098v177.31h47.9111z" />
    <glyph glyph-name="uniF12B" unicode="&#xf12b;" 
d="M484.766 448c15.0439 0 27.2344 -12.1953 27.2344 -27.2344v-457.531c0 -15.0391 -12.1904 -27.2344 -27.2344 -27.2344h-457.531c-15.0391 0 -27.2344 12.1953 -27.2344 27.2344v457.531c0 15.0391 12.1953 27.2344 27.2344 27.2344h457.531zM169.33 -17.9912
c94.001 0 143.764 52.0068 143.785 103.501c0 37.8281 -21.8633 56.4453 -45.9053 76.707l-19.7012 15.2998c-5.99219 4.96777 -14.2061 11.5371 -14.2061 23.5576c0 12.0762 8.20898 19.7451 15.3223 26.8477c22.9424 18.0615 45.8672 37.2773 45.8672 77.7803
c0 41.6514 -26.1992 63.5586 -38.7646 73.957h33.8633l35.54 22.3262h-107.688c-29.5488 0 -72.127 -6.98242 -103.305 -32.7246c-23.4971 -20.2676 -34.957 -48.2207 -34.957 -73.3848c0 -42.7139 32.7891 -86.0156 90.7109 -86.0156
c5.46875 0 11.4541 0.539062 17.4736 1.09961c-2.70801 -6.58496 -5.44141 -12.0586 -5.44141 -21.3623c0 -16.9717 8.71484 -27.3643 16.4004 -37.2236c-24.6094 -1.69336 -70.542 -4.41699 -104.416 -25.2344c-32.25 -19.1836 -42.0713 -47.0986 -42.0713 -66.7998
c0 -40.5566 38.2256 -78.3311 117.493 -78.3311zM460.157 198.699h0.00585938v27.3438h-54.9482v54.7676h-27.043v-54.7676h-54.6807v-27.3438h54.6807v-55.1055h27.043v55.1055h54.9424zM246.414 280.516c0 -9.86328 -1.08984 -27.3535 -13.6611 -39.9951
c-8.79102 -8.77539 -23.4971 -15.3115 -37.1523 -15.3115c-47.0225 0 -68.3252 60.7861 -68.3252 97.4658c0 14.2812 2.70703 29.0254 12.0049 40.54c8.76367 10.9648 24.0371 18.084 38.2861 18.084c45.333 0 68.8477 -61.3311 68.8477 -100.783zM216.892 136.47
c41.5645 -29.5869 59.6104 -44.3311 59.6104 -72.3389c0 -33.9062 -27.8877 -59.1631 -80.3682 -59.1631c-58.4766 0 -96.1797 27.9688 -96.1797 66.8643c0 38.8906 34.9629 52.0449 46.9902 56.3965c22.9473 7.72363 52.4688 8.79688 57.3926 8.79688
c5.46289 0 8.19727 0 12.5547 -0.555664z" />
    <glyph glyph-name="uniF110" unicode="&#xf110;" 
d="M484.766 448c15.0439 0 27.2344 -12.1953 27.2344 -27.2344v-457.531c0 -15.0391 -12.1904 -27.2344 -27.2344 -27.2344h-457.531c-15.0439 0 -27.2344 12.1953 -27.2344 27.2344v457.531c0 15.0391 12.1904 27.2344 27.2344 27.2344h457.531zM288.746 97.4873
c78.3418 0 131.508 71.4404 131.519 167.054c0 72.2949 -61.2441 139.629 -154.308 139.629c-115.805 0 -174.2 -83.0312 -174.2 -152.266c0 -41.9248 15.8721 -79.2129 49.915 -93.1133c5.58301 -2.28809 10.583 -0.0761719 12.2109 6.10547
c1.11719 4.27637 3.77539 15.0605 4.96777 19.5547c1.63379 6.11621 0.99707 8.25684 -3.50195 13.584c-9.82129 11.5801 -16.0957 26.5693 -16.0957 47.8008c0 61.5986 46.0967 116.742 120.016 116.742c65.4482 0 101.397 -39.9961 101.397 -93.4082
c0 -70.2744 -31.0957 -129.59 -77.2744 -129.59c-25.502 0 -44.5713 21.084 -38.4541 46.9512c7.32031 30.8779 21.5098 64.2021 21.5098 86.4844c0 19.9521 -10.7031 36.5977 -32.8721 36.5977c-26.0625 0 -47.0107 -26.9727 -47.0107 -63.0908
c0 -23.0127 7.77734 -38.5742 7.77734 -38.5742s-26.6836 -113.016 -31.3516 -132.815c-9.31934 -39.4131 -1.39453 -87.7422 -0.724609 -92.6221c0.386719 -2.89844 4.09668 -3.5791 5.79004 -1.40039c2.40234 3.14258 33.4434 41.4717 43.999 79.7686
c2.97461 10.8389 17.1357 66.9902 17.1357 66.9902c8.46973 -16.1553 33.2256 -30.3818 59.5557 -30.3818z" />
    <glyph glyph-name="uniF134" unicode="&#xf134;" 
d="M512 136.666v-189.29h-109.738v176.612c0 44.3672 -15.8721 74.6455 -55.5938 74.6455c-30.3223 0 -48.3672 -20.4062 -56.3057 -40.1445c-2.89551 -7.05664 -3.64062 -16.8779 -3.64062 -26.7559v-184.357h-109.775s1.47852 299.123 0 330.115h109.765v-46.793
c-0.222656 -0.349609 -0.511719 -0.727539 -0.72168 -1.06641h0.72168v1.06641c14.583 22.4609 40.6279 54.5479 98.9229 54.5479c72.2236 0.000976562 126.366 -47.1816 126.366 -148.58zM62.1172 436.622c37.5576 0 60.6436 -24.6318 61.3652 -57.0244
c0 -31.6914 -23.8076 -57.0664 -62.0889 -57.0664h-0.733398c-36.8076 0 -60.6602 25.3799 -60.6602 57.0664c0 32.3926 24.5635 57.0244 62.1172 57.0244zM6.51953 -52.624v330.115h109.733v-330.115h-109.733z" />
    <glyph glyph-name="uniF128" unicode="&#xf128;" 
d="M294.609 122.002c5.44043 -7.28027 9.84766 -15.9912 13.2324 -26.1553c3.38672 -10.1572 5.07812 -21.0732 5.07812 -32.7715c0 -32.8203 -14.3574 -61.7451 -43.0762 -86.7715c-31.1748 -26.8701 -74.2549 -40.3027 -129.224 -40.3027
c-12.1035 0 -24.3594 1.02539 -36.7695 3.07617c-12.4092 2.05078 -24.9219 5.4873 -37.5352 10.3047c-12.6143 4.82715 -23.7451 10.7676 -33.3848 17.8486c-9.6416 7.07324 -17.5381 16.2051 -23.6895 27.3799c-6.15137 11.1816 -9.23047 23.6426 -9.23047 37.3848
c0 12.5137 3.79688 26.3574 11.3867 41.5381c6.56445 13.1299 16.4092 24.458 29.5371 34c13.125 9.53711 27.9971 16.8213 44.6123 21.8447c16.6162 5.02637 32.5117 8.71875 47.6895 11.0781c15.1826 2.36035 30.5635 3.74316 46.1523 4.16016
c-13.1318 17.0244 -19.6904 32.3066 -19.6904 45.8457c0 2.45996 0.203125 4.87109 0.615234 7.23145c0.407227 2.36133 0.920898 4.35938 1.53516 5.99805c0.616211 1.63867 1.43555 3.84863 2.46387 6.61719s1.74121 4.97363 2.15234 6.61328
c-8.20605 -1.02344 -15.3838 -1.53809 -21.5381 -1.53809c-30.5625 0 -56.7676 10.0537 -78.6113 30.1514c-21.8428 20.0986 -32.7686 45.3301 -32.7686 75.6895c0 28.7168 9.74512 54.4092 29.2295 77.0762c19.4873 22.6621 43.4873 37.1768 71.9961 43.5352
c19.2754 4.11035 38.457 6.16406 57.5312 6.16406h134.451l-41.5381 -24.3086h-41.5332c14.5645 -9.22852 25.8447 -22.1543 33.8447 -38.7705c7.99902 -16.6123 12.001 -33.9473 12.001 -51.998c0 -15.1787 -2.36035 -28.665 -7.07324 -40.459
c-4.72168 -11.7969 -10.4629 -21.2812 -17.2266 -28.4639c-6.77344 -7.17969 -13.54 -13.792 -20.3076 -19.8457s-12.5117 -12.3076 -17.2285 -18.7695s-7.07715 -13.3838 -7.07715 -20.7715c0 -5.33203 1.69336 -10.5625 5.07715 -15.6895
c3.38379 -5.12598 7.79492 -10.0518 13.2285 -14.7656c5.43457 -4.7207 11.4346 -9.64746 18 -14.7744c6.56055 -5.12695 13.126 -10.8213 19.6904 -17.0762c6.56445 -6.24707 12.5645 -13.0186 17.9971 -20.3057zM175.998 233.84
c19.8984 0 34.3057 6.20508 43.2314 18.6133c8.92285 12.4102 13.3838 28.8789 13.3838 49.3936c0 12.3066 -1.69336 25.3857 -5.07715 39.2305c-3.38379 13.8486 -8.20703 27.2295 -14.459 40.1514c-6.25879 12.9229 -14.873 23.5889 -25.8477 31.999
c-10.9736 8.41113 -23.2295 12.6133 -36.7686 12.6133c-19.0762 0 -33.8467 -7.07715 -44.3057 -21.2314c-10.4619 -14.1543 -15.6934 -31.0771 -15.6934 -50.7676c0 -9.64258 1.17871 -19.7979 3.53906 -30.4609c2.36133 -10.6689 6.00098 -21.334 10.9229 -31.999
c4.92383 -10.668 10.668 -20.2568 17.2285 -28.7686c6.56348 -8.5127 14.5625 -15.4355 24 -20.7705s19.3848 -8.00293 29.8457 -8.00293zM261.07 2.7832c5.64258 9.63574 8.46387 20.918 8.45898 33.8359c0 4.31152 -0.460938 8.45996 -1.38281 12.4688
c-0.918945 3.99805 -1.89551 7.68945 -2.91699 11.0752c-1.0293 3.38477 -2.82129 6.9209 -5.38672 10.6211c-2.56445 3.6875 -4.7207 6.81543 -6.46191 9.37793c-1.74316 2.56348 -4.46387 5.58789 -8.15332 9.07617c-3.69434 3.48535 -6.51562 6.10059 -8.45898 7.84473
c-1.94824 1.74316 -5.23047 4.35547 -9.84473 7.84473c-4.61523 3.48828 -7.79688 5.84668 -9.53711 7.07227c-1.74512 1.23047 -5.12793 3.5918 -10.1553 7.08008c-5.02734 3.48926 -8.15234 5.63574 -9.38477 6.46191
c-3.48535 0.405273 -8.61426 0.611328 -15.3857 0.611328c-11.0752 0 -21.9492 -0.710938 -32.6133 -2.15039c-10.6641 -1.43359 -21.7402 -3.99316 -33.2275 -7.69336c-11.4883 -3.68359 -21.5381 -8.4043 -30.1533 -14.1504
c-8.61328 -5.73828 -15.6904 -13.4316 -21.2324 -23.0713c-5.53906 -9.64453 -8.30664 -20.6172 -8.30664 -32.9238c0 -13.9512 3.64062 -26.4092 10.9219 -37.3848c7.28125 -10.9746 16.8203 -19.5947 28.6143 -25.8447c11.7939 -6.25488 24.1543 -10.9277 37.0752 -14
c12.9199 -3.0752 25.9463 -4.61719 39.0752 -4.61719c12.1035 0 23.6406 1.2793 34.6152 3.84961c10.9746 2.56641 21.2812 6.56543 30.9219 12.0049c9.64355 5.43262 17.2832 12.9668 22.9189 22.6113zM433.228 369.233h78.7607v-39.3867h-78.7607v-78.7666h-39.3887
v78.7666h-78.7686v39.3867h78.7686v78.7666h39.3887v-78.7666z" />
    <glyph glyph-name="uniF101" unicode="&#xf101;" 
d="M383.979 447.894c5.75781 -0.0107422 10.4238 -4.68164 10.4238 -10.4395v-78.1611c0 -5.7627 -4.6709 -10.4395 -10.4346 -10.4395l-44.7256 -0.015625c-30.835 0 -36.4756 -12.0166 -36.4756 -35.6875v-49.249h78.0801c2.76953 0 5.43262 -1.10254 7.3877 -3.0625
s3.05762 -4.6123 3.05762 -7.38184l-0.0322266 -84.1748c0 -5.76855 -4.6709 -10.4395 -10.4395 -10.4395h-78.0537v-212.397c0 -5.76367 -4.67188 -10.4404 -10.4404 -10.4404h-87.0977c-5.76855 0 -10.4404 4.67188 -10.4404 10.4404v212.397h-66.7559
c-5.76367 0 -10.4404 4.6709 -10.4404 10.4395v84.1748c0 5.76855 4.67188 10.4443 10.4404 10.4443h66.7559v58.0957c0 76.5469 48.2051 126.003 122.796 126.003z" />
    <glyph glyph-name="uniF114" unicode="&#xf114;" 
d="M180.596 192.817c0 40.5479 33.9219 73.4189 75.7656 73.4189s75.7656 -32.8711 75.7656 -73.4189c0 -40.5488 -33.9219 -73.4189 -75.7656 -73.4189s-75.7656 32.8701 -75.7656 73.4189zM373.632 188.721c0 11.2461 -1.70215 22.1094 -4.83984 32.3701h33.2129v-159.372
c0 -8.25488 -6.75098 -14.9961 -15.0059 -14.9961h-262.726c-8.25 0 -14.9961 6.74121 -14.9961 14.9961v159.372h34.6533c-3.14258 -10.2607 -4.83984 -21.124 -4.83984 -32.3701c0 -62.7539 52.5049 -113.619 117.271 -113.619c64.7666 0 117.271 50.8652 117.271 113.619
zM342.199 264.099c-9.34961 0 -16.9912 7.64258 -16.9863 16.9814v40.6562c0 9.34961 7.63672 16.9863 16.9863 16.9863h42.6416c9.34375 0 16.9814 -7.63672 16.9814 -16.9863v-40.6562c0 -9.34473 -7.6377 -16.9814 -16.9814 -16.9814h-42.6416zM256 448
c141.386 0 256 -114.614 256 -256s-114.614 -256 -256 -256s-256 114.614 -256 256s114.614 256 256 256zM396.218 3.35352c26.6338 0 48.4287 19.7207 48.4287 48.4189v280.445c0 28.708 -21.7891 48.4238 -48.4287 48.4238h-280.43
c-26.6455 0 -48.4297 -19.7158 -48.4297 -48.4238v-280.445c0 -28.6982 21.7842 -48.4189 48.4297 -48.4189h280.43z" />
    <glyph glyph-name="uniF119" unicode="&#xf119;" 
d="M393.846 310.154c-10.8496 0 -19.6914 8.8418 -19.6914 19.6914v39.3848c0 10.8506 8.8418 19.6924 19.6914 19.6924h39.3848c10.8506 0 19.6924 -8.8418 19.6924 -19.6924v-39.3848c0 -10.8496 -8.8418 -19.6914 -19.6924 -19.6914h-39.3848zM256 267.067
c41.4521 0 75.1064 -33.5557 75.1064 -75.0674s-33.6348 -75.0869 -75.0869 -75.0869c-41.5107 0 -75.0869 33.5957 -75.0869 75.0869c0 14.2969 4.1748 27.4902 11.1064 38.8525c-1.08301 -3.52441 -1.85059 -7.20703 -1.85059 -11.126
c0 -21.0117 17.0332 -38.0654 38.0654 -38.0654c21.0312 0 38.0645 17.0732 38.0645 38.0654c0 21.0518 -17.0332 38.085 -38.0645 38.085c-3.87988 0 -7.5625 -0.728516 -11.1064 -1.83105c11.3623 6.89258 24.5557 11.0869 38.8525 11.0869zM256 310.154
c-65.2402 0 -118.154 -52.8936 -118.154 -118.154s52.9141 -118.154 118.154 -118.154c65.2207 0 118.154 52.8936 118.154 118.154s-52.9141 118.154 -118.154 118.154zM256 349.538v0c86.8623 0 157.538 -70.6758 157.538 -157.538s-70.6758 -157.538 -157.538 -157.538
s-157.538 70.6758 -157.538 157.538s70.6758 157.538 157.538 157.538zM416 448c53.0312 0 96 -42.9688 96 -96v-320c0 -53.0312 -42.9688 -96 -96 -96h-320c-53.0312 0 -96 42.9688 -96 96v320c0 53.0312 42.9688 96 96 96h320zM472.615 270.77v81.2305
c0 31.2119 -25.3828 56.6152 -56.6152 56.6152h-320c-31.2119 0 -56.6152 -25.4033 -56.6152 -56.6152v-81.2305h128.729c-18.7666 -20.9131 -30.2676 -48.4629 -30.2676 -78.7695c0 -65.2607 52.9141 -118.154 118.154 -118.154c65.2207 0 118.154 52.8936 118.154 118.154
c0 30.3066 -11.501 57.8359 -30.2676 78.7695h128.729z" />
    <glyph glyph-name="uniF11A" unicode="&#xf11a;" 
d="M301.272 224.889c6.49609 -9.33887 10.5566 -20.708 10.5566 -32.8887c0 -30.8584 -25.1738 -56.0312 -56.0322 -56.0312s-56.0312 25.1729 -56.0312 56.0312c0 12.1807 4.05957 23.5498 10.5566 32.8887c10.1504 14.2109 26.7979 23.5488 45.4746 23.5488
c18.6777 0 35.3242 -9.33789 45.4756 -23.5488zM336.597 224.482h49.1289v-130.335c0 -17.0527 -15.0234 -32.0762 -32.0762 -32.0762h-195.705c-17.0527 0 -32.0762 15.0234 -32.0762 32.0762v130.335h49.1299c-4.06055 -8.12109 -6.49707 -20.708 -6.49707 -32.4824
c0 -48.3174 38.9785 -87.2959 87.2959 -87.2959s87.2959 39.3848 87.2959 87.2959c0 11.3691 -2.43652 24.3613 -6.49609 32.4824zM371.108 314.62l6.49707 0.40625v-7.30859v-47.0996h-53.5957v54.002h47.0986zM383.289 447.797
c70.6494 0 128.305 -57.6553 128.711 -128.305v-254.984c0 -70.6494 -57.6562 -128.305 -128.305 -128.305h-255.391c-70.6484 0 -128.305 57.6553 -128.305 127.898v255.391c0 70.6494 57.6562 128.305 128.305 128.305h254.984zM414.147 224.889v64.9639
c0 34.1064 -26.3916 60.498 -60.498 60.498h-195.705c-34.1064 0 -60.498 -26.3916 -60.498 -60.498v-64.9639v-130.741c0 -34.1064 26.3916 -60.498 60.498 -60.498h195.705c34.1064 0 60.498 26.3916 60.498 60.498v130.741v0z" />
    <glyph glyph-name="uniF13E" unicode="&#xf13e;" 
d="M459.631 447.972c28.9375 0 52.3691 -23.4033 52.3691 -52.3408v-407.262c0 -28.9658 -23.46 -52.3408 -52.3691 -52.3408h-407.262c-28.9092 0 -52.3691 23.4033 -52.3691 52.3408v407.262c0 28.9375 23.46 52.3408 52.3691 52.3408h407.262zM294.931 361.528v0
v-77.8057c0 -11.7441 0.197266 -19.6201 0.564453 -23.4316c0.310547 -3.30273 1.12988 -6.66211 2.42773 -9.76758c1.18652 -2.79492 2.99316 -4.99707 5.58984 -6.77539c2.6543 -1.83496 6.1543 -2.7666 10.4463 -2.7666c3.72559 0 6.85938 0.987305 9.6543 2.93555
c2.7666 1.97656 5.02539 4.7998 6.97363 8.75195l7.67871 -3.19043l-0.310547 -5.95703h25.2383v118.007h-24.8994v-77.5791c0 -15.7529 -0.452148 -15.3867 -0.84668 -17.2217c-0.480469 -2.11719 -2.20215 -7.08594 -8.41309 -7.08594
c-5.84375 0 -7.65039 4.71484 -8.1875 6.71875c-0.507812 1.8916 -0.988281 1.44043 -0.988281 16.5439v78.624h-24.9277zM208.317 312.462l0.0283203 -22.3584c0 -11.3779 0.564453 -19.9033 1.69434 -25.3799c1.04395 -5.08203 2.79492 -9.45801 5.16602 -13.0146
c2.31445 -3.41602 5.64648 -5.95703 9.99414 -7.70703c4.68555 -1.97656 10.5303 -2.93652 17.418 -2.93652c6.04199 0 11.4336 1.12988 16.0078 3.30371c4.43164 2.08887 7.9043 5.30664 10.6992 9.62598c2.79492 4.4043 4.6582 9.2041 5.50488 14.2285
c0.875 5.47754 1.35547 14.3701 1.35547 26.5664v20.7773c0 9.37305 -0.480469 16.3184 -1.44043 20.6094c-0.931641 4.12109 -2.68164 8.21484 -5.19434 12.2236c-2.45605 3.81152 -6.06934 7.05762 -10.7559 9.54199c-4.82715 2.54102 -10.7275 3.89648 -17.6162 3.89648
c-8.07422 0 -14.708 -1.94824 -19.7334 -5.87207c-4.94043 -3.7832 -8.24414 -8.69531 -10.1074 -14.9346c-1.97559 -6.74707 -3.02051 -16.2607 -3.02051 -28.5703zM150.021 403.564h-18.3789l27.2715 -93.1064l0.168945 -0.706055v-66.1738h21.541v66.1738
l0.168945 0.734375l23.6582 93.0781h-18.3789c-5.41992 -24.5898 -12.252 -48.1904 -15.7812 -65.2422zM443.455 38.6201c3.21777 46.4688 3.21777 92.1182 0 138.53c-3.21875 29.3604 -29.248 53.3564 -58.4951 55.418c-86.0488 3.66992 -171.843 3.66992 -257.863 0
c-29.2471 -2.06152 -55.3047 -26.0576 -58.5234 -55.418c-3.18945 -46.4121 -3.18945 -92.0615 0 -138.53c3.24707 -29.3604 29.2764 -53.4131 58.5234 -55.3896c86.0205 -3.69824 171.814 -3.69824 257.863 0c29.2188 1.97656 55.2764 26.0293 58.4951 55.3896z
M242.251 255.182c-3.58496 0 -6.37988 2.28613 -7.67871 6.23828c-0.621094 1.8916 -1.32617 5.25098 -1.32617 15.0195v49.7148c0 10.417 0.676758 13.833 1.35449 15.668c1.32715 3.81152 4.15039 5.95703 7.73535 5.95703c3.6416 0 6.43652 -2.23047 7.70703 -6.06934
c0.621094 -1.8916 1.21387 -5.22266 1.21387 -15.5557v-51.127c0 -8.9209 -0.705078 -12.1953 -1.29785 -13.918c-1.27051 -3.75391 -4.09375 -5.92773 -7.70801 -5.92773zM102.112 168.229v25.9727h74.3037v-25.9727h-20.4111h-4.00879v-4.15039v-132.799h-25.5205v132.799
v4.15039h-4.03711h-20.3262zM222.8 78.0312l0.0283203 76.8447h24.1377v-123.737h-24.5049l0.338867 6.88867l-7.65039 1.86328c-1.91992 -3.81152 -4.2627 -6.69043 -6.94434 -8.49805c-2.59766 -1.77832 -5.56152 -2.65332 -8.97754 -2.65332
c-3.98145 0 -7.28418 0.818359 -9.76855 2.54102c-2.56836 1.66504 -4.4043 3.83887 -5.61816 6.66211c-1.35449 3.13379 -2.22949 6.46484 -2.56836 9.8252c-0.338867 3.66992 -0.508789 11.123 -0.508789 22.3018v84.8066h24.166v-77.833
c0 -14.0029 0.452148 -17.6445 0.875 -19.1973c0.959961 -3.6416 3.9248 -5.84375 8.01758 -5.84375c4.29199 0 7.34082 2.31445 8.21582 6.12598c0.338867 1.55273 0.761719 5.19434 0.761719 19.9033zM329.684 148.608
c1.46777 -2.85059 2.34277 -5.58984 2.59668 -8.38477c1.44043 -13.3525 0.480469 -20.0723 0.480469 -19.79v-64.6768c0 0.507812 -0.480469 -7.00195 -1.44043 -11.7441c-0.875 -4.29102 -2.87891 -7.82031 -6.12598 -10.9824
c-3.10547 -2.90723 -6.66211 -4.4043 -10.8975 -4.4043c-2.99219 0 -5.73047 0.90332 -8.35645 2.6543c-2.7666 1.8916 -5.3916 4.74219 -7.7627 8.63867l-5.36426 8.69531l-1.97656 -10.1074l-1.41113 -7.25488h-22.8105v162.922h24.166v-45.3105v-13.7207l7.36816 11.377
c2.31445 3.61328 4.88379 6.18262 7.62207 7.93262c2.68164 1.66602 5.47656 2.42871 8.58203 2.42871c3.69824 0 6.91699 -0.706055 9.54199 -2.20215c2.54102 -1.49609 4.46094 -3.44434 5.78809 -6.07031zM308.651 76.8174v0l0.0566406 -0.0283203v31.3643
c0 10.3896 -0.706055 13.833 -1.24219 15.5557c-1.21484 3.92383 -4.09375 6.23926 -7.90527 6.23926c-3.69824 0 -6.57812 -2.20215 -7.67871 -5.84375c-0.507812 -1.58105 -1.07324 -4.88477 -1.07324 -15.8945v-32.7764c0 -10.5869 0.621094 -14.0312 1.18652 -15.7812
c1.18555 -3.86719 4.03711 -6.06934 7.7627 -6.06934c3.83984 0 6.69141 2.31445 7.82031 6.29492c0.480469 1.83496 1.07324 5.36426 1.07324 16.9395zM374.684 89.4082v-0.0283203h-0.0566406v-3.89551v-23.6582c0 -8.49707 0.706055 -11.2363 1.32715 -12.7607
c1.27051 -3.24609 4.09375 -5.05273 7.73535 -5.05273c4.15039 0 7.33984 2.20215 8.72363 5.95605c0.988281 2.7666 1.46777 7.36914 1.46777 14.4268v13.3252h22.4717v-5.78809c0 -7.79102 -0.394531 -13.7764 -1.18555 -17.8135
c-0.733398 -3.83984 -2.5127 -8.10254 -5.2793 -12.5625c-2.65332 -4.29199 -5.98438 -7.53809 -9.99316 -9.65527c-4.00879 -2.08887 -9.25977 -3.19043 -15.5557 -3.19043c-6.1543 0 -11.6309 1.10156 -16.2617 3.24707
c-4.5166 2.11719 -8.10156 5.02441 -10.5576 8.61035c-2.59766 3.81055 -4.43262 8.0459 -5.44922 12.6191c-1.01562 4.74316 -1.58105 11.9697 -1.58105 16.8535v37.9717c0 15.3291 1.21387 23.9678 3.5293 30.0371c2.20215 5.84473 5.6748 10.1641 10.6709 13.2412
c4.99707 3.07715 10.8691 4.60156 17.4473 4.60156c8.10254 0 14.8213 -1.8916 19.9316 -5.50488c5.27832 -3.75488 8.86426 -8.61133 10.9814 -14.9062c2.23047 -6.52148 3.35938 -20.4678 3.35938 -32.6357v-13.4375h-37.6885h-4.03711zM374.684 106.771
l0.0283203 -3.9248h4.03711h9.40137h4.03711v3.9248v13.9736c0 9.57129 -0.56543 8.15918 -1.0166 9.62695c-1.10156 3.61426 -3.86816 5.73145 -7.48145 5.73145c-4.03711 0 -6.94531 -1.94824 -8.01758 -5.25098
c-0.452148 -1.38379 -0.988281 0.168945 -0.988281 -10.1074v-13.9736z" />
    <glyph glyph-name="uniF10A" unicode="&#xf10a;" 
d="M460.8 448c28.1602 0 51.2002 -23.04 51.2002 -51.2002v-409.6c0 -28.1602 -23.04 -51.2002 -51.2002 -51.2002h-409.6c-28.1602 0 -51.2002 23.04 -51.2002 51.2002v409.6c0 28.1602 23.04 51.2002 51.2002 51.2002h409.6zM401.92 261.12
c12.7998 10.2402 25.5996 20.4795 28.1611 33.2803c-10.2402 -5.12012 -23.04 -7.68066 -35.8398 -10.2402c12.7998 10.2402 23.04 20.4795 28.1602 38.3994c-12.8008 -5.11914 -25.6006 -12.7998 -43.5205 -15.3594c-38.3994 48.6396 -135.681 10.2402 -117.761 -61.4404
c-66.5605 5.12012 -107.521 35.8398 -140.8 71.6807c-17.9199 -30.7207 -2.56055 -79.3604 20.4795 -92.1602c-10.2402 0 -20.4795 2.55957 -28.1602 7.67969c2.56055 -40.96 23.04 -58.8799 53.7607 -69.1201c-7.68066 0 -17.9199 -2.55957 -28.1602 0
c10.2402 -28.1602 30.7197 -46.0801 64 -48.6396c-23.04 -20.4814 -66.5605 -33.2812 -99.8398 -28.1602c30.7197 -17.9199 64 -33.2803 110.08 -30.7197c112.64 5.12012 186.88 87.04 189.439 204.8z" />
    <glyph glyph-name="uniF135" unicode="&#xf135;" 
d="M256 448c141.376 0 256 -114.593 256 -256c0 -141.376 -114.624 -256 -256 -256s-256 114.624 -256 256s114.624 256 256 256zM192 68v224.001h-64v-224.001h64zM161.983 305.729c16.5762 0 30.0166 13.4395 30.0166 30.0156
c0 16.5449 -13.4404 29.9854 -30.0166 30.0166c-16.543 0 -29.9834 -13.4404 -29.9834 -30.0166s13.4072 -30.0156 29.9834 -30.0156zM415.999 68v136.546c0 75.0068 -43.2637 87.4229 -64 87.4229c-32 0 -54.8477 -14.3682 -64 -21.376v21.4082h-64v-224.001h64v138.496
s6.36816 27.584 39.4238 27.584c19.9365 0 24.5762 -11.3594 24.5762 -27.584v-138.496h64z" />
    <glyph glyph-name="uniF11C" unicode="&#xf11c;" 
d="M248.4 237.083c-65.9443 -17.5195 -123.174 -16.8389 -126.794 -16.7773c8.93066 42.5361 37.5039 77.8125 75.8018 95.9102c1.81543 -2.46484 27.2236 -36.8857 50.9922 -79.1328zM223.105 325.352c-0.144531 -0.0615234 -0.289062 -0.0927734 -0.433594 -0.123047
c0.257812 0.0507812 0.413086 0.0927734 0.413086 0.0927734zM346.702 295.066c-0.330078 -0.536133 -19.9014 -30.2959 -71.7285 -49.7441c-23.4902 43.1445 -49.2803 77.4102 -51.3418 80.1328c10.3838 2.50586 21.2109 3.86719 32.3682 3.86719
c34.7812 0 66.501 -12.9521 90.7021 -34.2559zM279.387 169.521c0.289062 0.113281 0.587891 0.206055 0.886719 0.288086c19.3145 -50.1973 27.3164 -92.249 29.3477 -104.252c-16.4785 -7.01172 -34.5859 -10.9092 -53.6211 -10.9092
c-31.832 0 -61.0869 10.9404 -84.3711 29.1309c0.237305 0.494141 26.666 57.4873 107.758 85.7422zM265.508 190.928c-74.1211 -23.9541 -111.708 -90.6514 -111.718 -90.6094l0.0507812 -0.0830078c-21.8604 24.3359 -35.1729 56.498 -35.1729 91.7852
c0 1.46484 0.0615234 2.8877 0.113281 4.33105c2.41309 -0.0410156 70.2852 -1.59863 140.982 19.5713c3.94922 -7.71289 7.71289 -15.5293 11.1367 -23.3555c-1.78418 -0.505859 -3.59863 -1.05176 -5.39258 -1.63965zM256 448c141.168 0 256 -114.842 256 -256
c0 -141.147 -114.853 -256 -256 -256c-141.158 0 -256 114.853 -256 256c0 141.158 114.842 256 256 256zM413.543 159.59c2.16602 10.6113 3.25879 21.4902 3.25879 32.4209c0 10.8994 -1.07227 21.7988 -3.24805 32.3682
c-2.10352 10.332 -5.29004 20.5098 -9.37402 30.2344c-4.03125 9.51758 -9.02246 18.7051 -14.8281 27.2949c-5.7334 8.51758 -12.3428 16.5195 -19.6025 23.7891c-7.26953 7.27051 -15.3027 13.8701 -23.7998 19.6338c-8.59961 5.82617 -17.7666 10.7861 -27.3154 14.8281
c-9.73438 4.09375 -19.8916 7.27051 -30.2236 9.36328c-10.6006 2.17578 -21.4902 3.2793 -32.3994 3.2793c-10.9004 0 -21.7891 -1.10352 -32.3896 -3.2793c-10.3223 -2.09277 -20.5098 -5.2793 -30.2236 -9.36328c-9.51758 -4.04199 -18.7158 -9.02246 -27.3164 -14.8281
c-8.52734 -5.75391 -16.5195 -12.3535 -23.7891 -19.6338c-7.26953 -7.25879 -13.8594 -15.2812 -19.623 -23.7891c-5.79492 -8.5791 -10.7764 -17.7568 -14.8076 -27.2949c-4.11426 -9.73438 -7.28027 -19.9023 -9.39453 -30.2344
c-2.16504 -10.5801 -3.25781 -21.4688 -3.25781 -32.3682c0 -10.9307 1.09277 -21.8506 3.25781 -32.4209c2.11426 -10.332 5.29004 -20.5205 9.38379 -30.2236c4.03223 -9.49707 9.02344 -18.7158 14.8281 -27.3154c5.74414 -8.53809 12.3438 -16.5195 19.624 -23.7998
c7.25879 -7.25977 15.2715 -13.8281 23.7783 -19.6025c8.60059 -5.81641 17.7881 -10.7861 27.3262 -14.8281c9.71387 -4.09375 19.8916 -7.25977 30.2246 -9.38379c10.5996 -2.17578 21.4785 -3.24902 32.3887 -3.24902c10.8994 0 21.8096 1.07324 32.3896 3.24902
c10.332 2.12402 20.5205 5.29004 30.2236 9.38379c9.50781 4.03125 18.7158 9.02246 27.3154 14.8281c8.53809 5.74316 16.5303 12.3428 23.7998 19.6025c7.23926 7.28027 13.8486 15.3027 19.6025 23.7998c5.80566 8.59961 10.7764 17.7871 14.8281 27.3154
c4.08398 9.73438 7.25977 19.8916 9.36328 30.2236zM306.012 176.182c44.3311 7.07422 82.752 -5.05273 85.5986 -5.99121c-6.125 -38.2666 -28.0176 -71.2744 -58.8701 -92.1152c-1.39258 8.30176 -8.70312 48.6104 -26.7285 98.1064zM285.522 224.884
c54.2607 22.1299 76.2969 53.9727 76.5342 54.333c19.2412 -23.377 30.915 -53.2598 31.2031 -85.8555c-1.95898 0.422852 -48.4443 10.4248 -95.6309 4.50586c-0.979492 2.35156 -1.92871 4.72266 -2.95996 7.09473c-2.87695 6.72363 -5.92871 13.374 -9.14648 19.9219z
" />
    <glyph glyph-name="uniF100" unicode="&#xf100;" 
d="M256.002 446.935c141.381 0 255.998 -114.617 255.998 -255.929c0 -130.833 -98.1963 -238.524 -224.858 -253.94v200.495h61.5898l9.23828 71.5215h-70.8281v45.6455c0 20.7021 5.72266 34.8047 35.4062 34.8047l37.8652 0.0185547v63.96
c-6.52344 0.858398 -28.9932 2.80664 -55.1406 2.80664c-54.5938 0 -91.9668 -33.3457 -91.9668 -94.5352v-52.7373h-61.7549v-71.5215h61.7549v-198.747c-121.012 20.335 -213.306 125.352 -213.306 252.156c0 141.385 114.617 256.002 256.002 256.002z" />
    <glyph glyph-name="uniF13B" unicode="&#xf13b;" 
d="M134.487 173.107v17.9912h60.1719v-17.9912h-20.6738v-109.854h-19.2012v109.854h-20.2969zM296.85 159.677c6.8623 0 11.4922 -3.61328 13.792 -10.7578c1.15723 -3.8291 1.74902 -10.125 1.74902 -19.1445v-37.9326c0 -8.81543 -0.591797 -15.1582 -1.74902 -19.1963
c-2.30469 -7.09277 -6.9248 -10.707 -13.792 -10.707c-6.14355 0 -12.0625 3.41504 -17.8398 10.5439v-9.22852h-17.2588v127.851h17.2588v-41.7559c5.56836 6.86133 11.4922 10.3281 17.8398 10.3281zM295.121 90.4902v40.6562c0 8.58984 -2.5293 13.001 -7.51074 13.001
c-2.83398 0 -5.71973 -1.35156 -8.60547 -4.20605v-58.0566c2.88574 -2.8916 5.77148 -4.24805 8.60547 -4.24805c4.98633 0 7.51074 4.24316 7.51074 12.8535zM229.544 85.7139v72.8008h17.2744v-95.2666h-17.2744v10.3926
c-6.8623 -7.86719 -13.3779 -11.7021 -19.7314 -11.7021c-5.55176 0 -9.38574 2.2627 -11.1201 7.09277c-0.942383 2.89062 -1.52441 7.4375 -1.52441 14.168v75.3154h17.2646v-70.1348c0 -4.04395 0 -6.14941 0.157227 -6.70508
c0.418945 -2.68164 1.7334 -4.03809 4.03809 -4.03809c3.46777 0 7.08691 2.66602 10.916 8.07715zM244.361 246.521c-5.625 0 -8.32812 4.45215 -8.32812 13.3623v40.4932c0 8.9043 2.70312 13.3467 8.32812 13.3467c5.62012 0 8.31836 -4.43652 8.31836 -13.3467v-40.4932
c0 -8.9043 -2.69824 -13.3623 -8.31836 -13.3623zM256 448c141.386 0 256 -114.614 256 -256s-114.614 -256 -256 -256s-256 114.614 -256 256s114.614 256 256 256zM284.473 328.263v0v-76.127c0 -6.79395 0.582031 -11.3975 1.5459 -14.3154
c1.74902 -4.87109 5.625 -7.14941 11.2402 -7.14941c6.36328 0 12.9844 3.86035 19.9297 11.8223v-10.4971h17.4424v96.2666h-17.4424v-73.5811c-3.87109 -5.46289 -7.53223 -8.16602 -11.0205 -8.16602c-2.33594 0 -3.70801 1.38281 -4.09082 4.08594
c-0.208984 0.570312 -0.208984 2.69141 -0.208984 6.78223v70.8789h-17.3955zM218.591 296.872v-33.7109c0 -10.2295 1.75 -17.8242 5.45801 -22.6377c4.82422 -6.56836 11.6182 -9.85254 20.3125 -9.85254c8.7373 0 15.5254 3.28418 20.3496 9.85254
c3.65527 4.81348 5.40527 12.4033 5.40527 22.6377v33.7109c0 10.293 -1.75 17.8193 -5.40527 22.6797c-4.82422 6.58398 -11.6123 9.87402 -20.3496 9.87402c-8.69434 0 -15.4883 -3.29004 -20.3125 -9.87402c-3.70801 -4.86523 -5.45801 -12.3867 -5.45801 -22.6797z
M171.943 361.178h-20.3496c4.0752 -11.9795 8.32324 -24.0059 12.3984 -35.9951c6.20703 -18.0176 10.0771 -31.5996 11.832 -40.8711v-52.3203h19.3379v52.3203l23.2725 76.8662h-19.5635l-13.1943 -50.7285zM393.813 54.8418
c4.98047 21.627 5.00195 45.2441 5.00195 67.5156s0.03125 45.8838 -4.93457 67.5156c-3.50391 15.1904 -15.9277 26.3936 -30.8818 28.0645c-35.4189 3.95508 -71.2666 3.97559 -106.952 3.95508c-35.6953 0.0205078 -71.5439 0 -106.962 -3.95508
c-14.9541 -1.66504 -27.3682 -12.874 -30.8613 -28.0645c-4.97559 -21.6318 -5.03906 -45.2441 -5.03906 -67.5156s0 -45.8887 4.98145 -67.5156c3.48828 -15.1904 15.9121 -26.3936 30.8662 -28.0645c35.4131 -3.95508 71.2666 -3.97559 106.952 -3.95508
c35.7012 -0.0205078 71.5332 0 106.957 3.95508c14.9541 1.6709 27.373 12.8799 30.8721 28.0645zM351.826 159.677c8.66406 0 15.5303 -3.24707 20.3545 -9.75195c3.61914 -4.81934 5.34277 -12.2676 5.34277 -22.4443v-19.7314h-34.5283v-16.8975
c0 -8.80957 2.90234 -13.21 8.83105 -13.21c4.24805 0 6.73145 2.30469 7.71582 6.91992c0.151367 0.9375 0.376953 4.77637 0.376953 11.6904h17.6045v-2.50879c0 -5.56738 -0.204102 -9.39648 -0.366211 -11.125c-0.576172 -3.82422 -1.93848 -7.28613 -4.0332 -10.3447
c-4.77734 -6.91992 -11.8535 -10.3291 -20.8682 -10.3291c-9.03027 0 -15.9072 3.25293 -20.8887 9.75781c-3.67676 4.77148 -5.54688 12.2725 -5.54688 22.3975v33.3701c0 10.1768 1.6709 17.625 5.33203 22.4443c4.98633 6.52051 11.8428 9.7627 20.6738 9.7627z
M360.27 122.111v8.81543c0 8.80469 -2.89062 13.2148 -8.60059 13.2148c-5.7666 0 -8.66309 -4.40527 -8.66309 -13.2148v-8.81543h17.2637z" />
    <glyph glyph-name="uniF10E" unicode="&#xf10e;" 
d="M256 448c141.385 0 256 -114.615 256.001 -256c0 -141.385 -114.616 -256 -256.001 -256c-141.388 0 -256 114.615 -256 256s114.615 256 256 256zM280.822 105.941c85.8008 -6.63574 133.73 85.6357 122.023 170.83c-10.3984 75.4844 -85.7109 113.92 -165.952 104.938
c-63.4512 -7.10059 -126.71 -58.4453 -129.344 -131.783c-1.63672 -44.8047 11.0781 -78.4111 53.6885 -87.8564c18.4736 32.6328 -5.9541 39.8057 -9.76172 63.4512c-15.6445 96.7188 111.575 162.731 178.155 95.1787
c46.0732 -46.7842 15.7393 -190.647 -58.5713 -175.714c-71.165 14.3047 34.8477 128.835 -21.9658 151.309c-46.1758 18.2803 -70.7012 -55.8838 -48.8096 -92.7373c-12.8379 -63.375 -40.4873 -123.073 -29.2852 -202.557c36.2881 26.334 48.54 76.7549 58.5693 129.345
c18.2314 -11.0771 27.9932 -22.5977 51.2529 -24.4043z" />
    <glyph glyph-name="uniF117" unicode="&#xf117;" 
d="M488.864 448c12.7676 0 23.1357 -10.3359 23.1348 -23.0723v-465.854c0 -12.7051 -10.3691 -23.0723 -23.1367 -23.0723h-465.759c-12.7363 0 -23.1035 10.3672 -23.1035 23.0723v465.854c0 12.7363 10.3672 23.0723 23.1035 23.0723h465.761zM256 281.345
c-49.3438 0 -89.3438 -40 -89.3438 -89.3438s40 -89.3438 89.3438 -89.3438s89.3438 40 89.3438 89.3438s-40 89.3438 -89.3438 89.3438zM448 -0h-0.000976562v224.001h-42.1123c2.17578 -10.3359 3.45605 -21.0244 3.45605 -32
c0 -84.5762 -68.7676 -153.344 -153.344 -153.344c-84.5439 0 -153.344 68.7676 -153.344 153.344c0 10.9756 1.28027 21.6641 3.48828 32h-42.1436v-224.001h384zM448 288.001v95.999h-95.999v-95.999h95.999z" />
    <glyph glyph-name="uniF116" unicode="&#xf116;" 
d="M355.508 213.75h32.1104v-138.101c0 -8.43164 -6.83594 -15.2676 -15.2676 -15.2676h-232.701c-8.43164 0 -15.2676 6.83594 -15.2676 15.2676v138.101h32.1104c-1.52539 -7.01172 -2.35254 -14.2822 -2.35254 -21.749c0 -56.2559 45.6035 -101.859 101.859 -101.859
s101.859 45.6035 101.859 101.859c0 7.4668 -0.825195 14.7402 -2.35059 21.749zM255.999 123.39c-37.8916 0 -68.6094 30.7178 -68.6094 68.6094s30.7178 68.6094 68.6094 68.6094s68.6094 -30.7178 68.6094 -68.6094s-30.7178 -68.6094 -68.6094 -68.6094zM338.2 262.463
c-7.66113 0 -13.8701 6.20898 -13.8701 13.8701v26.1309c0 7.66113 6.20898 13.8711 13.8701 13.8711h26.1309c7.66309 0 13.8721 -6.20996 13.8721 -13.8711v-26.1289c0 -7.66016 -6.21094 -13.8721 -13.8721 -13.8721h-26.1309zM512 448v-512h-512v512h512z
M419.072 313.939c0 22.7158 -18.415 41.1309 -41.1299 41.1309h-243.882c-22.7158 0 -41.1309 -18.415 -41.1309 -41.1309v-243.882c0 -22.7148 18.415 -41.1299 41.1309 -41.1299h243.882c22.7148 0 41.1299 18.415 41.1299 41.1299v243.882z" />
    <glyph glyph-name="uniF10C" unicode="&#xf10c;" 
d="M405.018 395.533c33.166 -31.8447 52.1895 -75.5156 52.1895 -119.814c0 -56.665 -15.7959 -108.263 -44.4746 -145.282c-29.5703 -38.168 -71.582 -59.1895 -118.297 -59.1895c-24.7803 0 -50.248 10.2988 -66.0645 25.5342
c-5.17969 -20.4434 -13.6328 -53.6992 -16.0488 -62.4951c-2.98145 -10.8145 -32.2676 -106.517 -65.0322 -97.7129c-29.1611 7.83496 -11.543 106.099 -8.61816 118.54c5.05762 21.3125 31.7236 134.332 36.2109 153.343
c-2.72461 6.50391 -8.74414 23.4434 -8.74414 46.0918c0 46.1797 27.9023 82.3545 63.5195 82.3545c28.0244 0 46.8564 -20.582 46.8564 -51.2148c0 -17.9092 -6.93555 -40.3555 -14.2725 -64.1221c-4.02246 -13.0127 -8.17969 -26.4727 -11.2275 -39.376
c-2.69824 -11.4209 -0.487305 -22.3789 6.22266 -30.8623c7.10156 -8.97363 18.3574 -14.1201 30.8877 -14.1201c28.9766 0 47.8516 22.293 58.585 40.9941c15.4473 26.915 23.9512 63.4795 23.9512 102.962c0 62.5664 -42.4805 101.434 -110.866 101.434
c-86.1875 0 -132.689 -66.3721 -132.689 -128.823c0 -21.0244 5.37695 -37.1797 16.9229 -50.8418c6.33789 -7.46875 8.68652 -12.6279 5.78027 -23.3535c-1.35742 -5.43066 -4.48047 -17.9414 -5.82812 -23.0127c-2.31152 -8.83984 -8.98438 -14.3506 -17.4062 -14.3506
c-2.64355 0 -5.34082 0.553711 -8.02051 1.65137c-39.9219 16.2744 -63.7607 60.0186 -63.7607 117.012c0 45.3916 19.5625 91.2188 53.6758 125.731c27.6797 28.0049 77.7715 61.3906 159.216 61.3906c53.3174 0 102.09 -18.6338 137.333 -52.4668z" />
    <glyph glyph-name="uniF12F" unicode="&#xf12f;" 
d="M256 448c141.38 0 256 -114.614 256 -256s-114.62 -256 -256 -256s-256 114.614 -256 256s114.62 256 256 256zM385.856 164.312c-10.7686 10.5078 -11.4551 16.5986 -2.78125 28.6982c9.43848 13.2363 19.6055 25.9541 29.1387 39.1318
c8.89355 12.3096 17.9922 24.5869 22.6748 39.3262c2.97461 9.38086 0.339844 13.5186 -9.27637 15.1631c-1.66602 0.288086 -3.37305 0.304688 -5.05469 0.304688l-57.0615 0.0673828c-7.0293 0.105469 -10.9053 -2.95898 -13.3984 -9.18652
c-3.35156 -8.42285 -6.80371 -16.8301 -10.8057 -24.9531c-9.06641 -18.4219 -19.1914 -36.2197 -33.4014 -51.2998c-3.13184 -3.31543 -6.58887 -7.5166 -11.8271 -5.78809c-6.53711 2.38379 -8.47461 13.1729 -8.36523 16.8135l-0.0517578 65.8506
c-1.26758 9.40723 -3.36328 13.5977 -12.7021 15.4307l-59.2559 -0.0107422c-7.91406 0 -11.874 -3.05859 -16.1006 -8.00293c-2.43555 -2.86035 -3.16895 -4.71484 1.83789 -5.66211c9.83203 -1.86523 15.3789 -8.23438 16.8447 -18.0967
c2.35742 -15.7607 2.19531 -31.5791 0.833008 -47.4033c-0.397461 -4.61914 -1.18848 -9.22852 -3.02246 -13.5391c-2.86426 -6.7832 -7.49512 -8.16113 -13.5713 -3.99219c-5.50488 3.77734 -9.37012 9.10938 -13.1572 14.457
c-14.21 20.082 -25.5498 41.7354 -34.7998 64.4932c-2.67676 6.57422 -7.28613 10.5596 -14.2529 10.6699c-17.1172 0.272461 -34.2344 0.314453 -51.3516 -0.015625c-10.3027 -0.194336 -13.3721 -5.19043 -9.17676 -14.5303
c18.6416 -41.4678 39.3887 -81.7783 66.4785 -118.506c13.9121 -18.8408 29.877 -35.4814 50.5039 -47.2715c23.3818 -13.3672 48.5391 -17.3896 75.0527 -16.1484c12.4092 0.581055 16.1377 3.81348 16.709 16.1797c0.398438 8.45898 1.35156 16.8818 5.52637 24.4814
c4.0957 7.46973 10.3076 8.89355 17.457 4.24316c3.58301 -2.32031 6.58984 -5.26953 9.44434 -8.40234c6.9873 -7.63086 13.7178 -15.5137 20.9727 -22.8945c9.08691 -9.25977 19.8672 -14.7236 33.4121 -13.6025l52.4463 -0.0107422
c8.44336 0.560547 12.833 10.9053 7.97168 20.3389c-3.4043 6.61523 -7.87695 12.498 -12.623 18.1855c-10.7109 12.8594 -23.334 23.8271 -35.2666 35.4814z" />
    <glyph glyph-name="uniF115" unicode="&#xf115;" 
d="M352 448c88.3516 0 160 -71.6484 160 -160v-192c0 -88.3516 -71.6484 -160 -160 -160h-192c-88.3516 0 -160 71.6484 -160 160v192c0 88.3516 71.6484 160 160 160h192zM464 96v192c0 61.7598 -50.2402 112 -112 112h-192c-61.7598 0 -112 -50.2402 -112 -112v-192
c0 -61.7598 50.2402 -112 112 -112h192c61.7598 0 112 50.2402 112 112zM256 320c70.6885 0 128 -57.3115 128 -128s-57.3115 -128 -128 -128s-128 57.3115 -128 128s57.3115 128 128 128zM256 112c44.0957 0 80 35.9043 80 80c0 44.1279 -35.9043 80 -80 80
s-80 -35.8721 -80 -80c0 -44.0957 35.9043 -80 80 -80zM376.544 329.6c0 9.41992 7.63672 17.0566 17.0557 17.0566c9.41992 0 17.0566 -7.63672 17.0566 -17.0566c0 -9.41895 -7.63672 -17.0557 -17.0566 -17.0557c-9.41895 0 -17.0557 7.63672 -17.0557 17.0557z" />
    <glyph glyph-name="uniF112" unicode="&#xf112;" 
d="M483.818 419.831c18.7744 -18.7773 28.1631 -41.3906 28.1631 -67.8291v-320.003c0 -26.4404 -9.38867 -49.0537 -28.166 -67.832c-18.7705 -18.7773 -41.3848 -28.166 -67.8242 -28.166h-241.65c18.8877 27.1123 30.8867 50.4404 35.9971 69.9971
c2.00098 7.55566 7.88867 30.7705 17.6641 69.6611c4.66797 -8.66992 12.834 -16.1133 24.499 -22.334c11.6699 -6.21973 24.1592 -9.33203 37.5029 -9.33203c40.2158 0 73.0488 16.3916 98.4912 49.1689c25.4414 32.7744 38.1621 74.2715 38.1621 124.495
c0 18.6631 -3.8877 36.7207 -11.6699 54.1602c-7.77051 17.4463 -18.4951 32.8887 -32.1582 46.334c-13.6719 13.4434 -30.6162 24.2188 -50.8359 32.3271c-20.2236 8.1084 -42.1094 12.1719 -65.6699 12.1719c-23.1016 0 -44.7158 -3.16797 -64.8223 -9.5
c-20.1084 -6.33301 -37.1113 -14.834 -50.9971 -25.4951c-13.8906 -10.668 -25.8311 -22.833 -35.8301 -36.5029c-9.99805 -13.6641 -17.3867 -27.8848 -22.165 -42.665c-4.77832 -14.7705 -7.16797 -29.498 -7.16797 -44.166c0 -22.6611 4.38867 -42.665 13.1641 -59.9932
c8.77441 -17.332 21.7246 -29.5615 38.833 -36.6689c2.88867 -1.11035 5.49805 -1.11035 7.83496 0c2.33496 1.11523 3.94434 3.22168 4.83496 6.33691c2.22168 9.77344 3.8877 16.5488 5 20.3281c1.33398 5.11328 0.109375 9.78418 -3.66602 14.0039
c-11.1094 13.7793 -16.668 30.4473 -16.668 50c0 33.3301 11.501 61.8311 34.501 85.4971c23.002 23.6631 53.0596 35.499 90.1611 35.499c33.1133 0 58.9453 -9.00098 77.4922 -27.001c18.5625 -17.9961 27.8389 -41.333 27.8389 -69.9951
c0 -37.3281 -7.49512 -69.1064 -22.4932 -95.3223c-15.0059 -26.2256 -34.2793 -39.3369 -57.835 -39.3369c-13.3379 0 -24.1133 4.84277 -32.335 14.502c-8.22168 9.67285 -10.7754 21.168 -7.66602 34.5049c1.7793 7.55371 4.72168 17.8262 8.83301 30.8252
c4.11133 13.001 7.38281 24.3311 9.83203 34.0039c2.44141 9.66309 3.66406 17.9424 3.66406 24.8281c0 10.8896 -2.94824 19.9443 -8.83301 27.1699c-5.88672 7.21973 -14.2764 10.8291 -25.1641 10.8291c-13.5547 0 -25.0547 -6.27734 -34.4951 -18.8359
c-9.44727 -12.5527 -14.1699 -28.0557 -14.1699 -46.4961c0 -15.9971 2.66895 -29.4365 8.00195 -40.3281l-32.6631 -137.992c-5.33496 -22.2178 -6.1123 -50.4434 -2.33105 -84.6553h-61c-26.4414 0 -49.0547 9.38867 -67.832 28.166
c-18.7744 18.7695 -28.1631 41.3848 -28.1631 67.8242v319.989c0 26.4404 9.38867 49.0537 28.1631 67.8311c18.7773 18.7744 41.3896 28.165 67.8301 28.165h319.984v-0.00585938c26.4414 0 49.0537 -9.38867 67.8232 -28.1631z" />
    <glyph glyph-name="uniF124" unicode="&#xf124;" 
d="M460.8 448c28.1602 0 51.2002 -23.04 51.2002 -51.2002v-409.6c0 -28.1602 -23.04 -51.2002 -51.2002 -51.2002h-409.6c-28.1602 0 -51.2002 23.04 -51.2002 51.2002v409.6c0 28.1602 23.04 51.2002 51.2002 51.2002h409.6zM358.4 217.6v76.8008h-76.8008v76.7998
h-56.3193c-5.12012 -30.7197 -10.2402 -76.7998 -71.6807 -81.9199v-71.6807h51.2002v-120.319c0 -46.0801 33.2803 -87.04 99.8398 -87.04c28.1602 0 53.7607 2.55957 53.7607 2.55957v76.7998h-48.6406c-25.5996 0 -28.1602 10.2402 -28.1602 28.1602v99.8398h76.8008z
" />
    <glyph glyph-name="uniF13F" unicode="&#xf13f;" 
d="M483.832 419.836c18.7744 -18.7754 28.1631 -41.3926 28.1641 -67.835v-319.999c0 -26.4424 -9.38867 -49.0566 -28.167 -67.8359c-18.7705 -18.7783 -41.3857 -28.167 -67.8271 -28.167h-319.999c-26.4424 0 -49.0566 9.38867 -67.835 28.167
c-18.7754 18.7793 -28.1641 41.3945 -28.1641 67.8359v319.999c0 26.4424 9.38867 49.0566 28.1641 67.835c18.7783 18.7744 41.3926 28.1641 67.835 28.1641h320.002c26.4424 0 49.0576 -9.38965 67.8271 -28.1641zM302.339 374.005v0v-97.6631
c0 -8.22363 0.658203 -14.3369 1.99414 -18.335c2.44824 -6.00098 7.22656 -8.99902 14.335 -8.99902c7.99902 0 16.5518 5.00488 25.6621 15.0029v-13.3389h0.0078125h22.335v123.333h-22.335v-94.335c-4.88477 -6.8877 -9.55566 -10.3301 -13.999 -10.3301
c-3.33105 0 -5.11426 1.77637 -5.33789 5.33203c-0.223633 0.445312 -0.327148 3.33496 -0.327148 8.66992v90.6631h-22.335zM218.005 334.003v-43.335c0 -12.8877 2.33398 -22.5547 7.00098 -29c5.99902 -8.44434 14.6631 -12.6699 25.9961 -12.6699
c10.8916 0 19.5605 4.22168 25.998 12.6699c4.66992 5.99902 7.00391 15.666 7.00391 29v43.335c0 12.8877 -2.33398 22.5557 -7.00391 28.999c-6.4375 8.44043 -15.1064 12.668 -25.998 12.668c-11.333 0 -19.9971 -4.22461 -25.9961 -12.668
c-4.66699 -6.44238 -7.00098 -16.1113 -7.00098 -28.999zM158.002 416.338v0h-26l8.00391 -23.001s2.55664 -7.66699 7.66699 -23.002c7.77637 -22.8867 12.8867 -40.4424 15.334 -52.6641v-66.999h24.666v66.999h-0.00390625l30.001 98.667h-25.001l-16.999 -65.0039z
M432.675 13.999c4.44141 18.6748 6.66406 47.5625 6.66309 86.668c0 39.3389 -2.11426 68.2256 -6.3291 86.6689c-2.2207 9.78223 -7.00391 17.9492 -14.3389 24.5039c-7.33594 6.55859 -15.7686 10.3887 -25.3271 11.501
c-30.2178 3.33301 -75.998 5.00195 -137.333 5.00195c-61.1133 0 -106.78 -1.66406 -136.998 -5.00195c-9.7793 -1.10938 -18.2764 -4.94336 -25.501 -11.501c-7.22168 -6.55859 -11.9414 -14.7266 -14.166 -24.5039c-4.44238 -19.3379 -6.66406 -48.2168 -6.66406 -86.6689
c0 -39.1074 2.22168 -67.999 6.66406 -86.668c2.22266 -9.55078 6.94336 -17.6602 14.166 -24.334c7.22461 -6.66406 15.6113 -10.5557 25.165 -11.6709c30.4434 -3.32715 76.2207 -4.99609 137.334 -4.99609c61.1074 0 106.892 1.66797 137.333 4.99609
c9.55859 1.11523 17.9434 5.00684 25.1602 11.6709c7.22754 6.67383 11.9502 14.7832 14.1719 24.334zM99.999 162.333v23.334h77.335v-23.334h-26.668v-140.998h-24.666v140.998h-26.001zM222.003 50.334v93.333h22.3301v-122.325h-22.3301v13.3379
c-8.66602 -10.001 -17.1113 -14.999 -25.333 -14.999c-7.33203 0 -12.001 3.1084 -14 9.33301c-1.33398 3.54883 -2.00195 9.5498 -2.00195 17.9951v96.666h22v-90.002c0 -5.33789 0.111328 -8.22559 0.334961 -8.66992c0.22168 -3.33203 1.88867 -4.99805 5 -4.99805
c4.44238 0 9.11133 3.44531 14 10.3291zM308.341 145.338c9.11328 0 14.998 -4.66699 17.6602 -14c1.5498 -4.66699 2.33301 -12.8896 2.33301 -24.6689v-48.6641c0 -11.5547 -0.775391 -19.666 -2.33301 -24.332c-2.66113 -9.33398 -8.5459 -14 -17.6602 -14
c-7.77051 0 -15.335 4.55469 -22.6621 13.6631v-12.001h-22.335v164.332h22.335v-53.666c7.10449 8.89355 14.6621 13.3369 22.6621 13.3369zM306.339 56.334v52.3389c0 11.1123 -3.21973 16.6621 -9.66797 16.6621c-3.77246 0 -7.44434 -1.78223 -11.001 -5.3291v-74.668
c3.55664 -3.55566 7.22949 -5.33594 11.001 -5.33594c6.44824 0.0078125 9.66797 5.44531 9.66797 16.332zM389.328 56.502v-0.000976562h0.0078125v7.16895h22.6689v-0.00878906v-2.99219c0 -6.44336 -0.222656 -11.2217 -0.663086 -14.335
c-0.663086 -4.88672 -2.33691 -9.3291 -5.00098 -13.333c-6.00586 -8.89258 -14.8916 -13.3359 -26.6699 -13.3359c-11.5596 0 -20.5576 4.22754 -27.0059 12.6699c-4.66699 6.00098 -6.99902 15.5596 -6.99902 28.6719v43.002c0 13.1016 2.2207 22.6621 6.66406 28.6641
c6.44922 8.44336 15.334 12.6699 26.6689 12.6699c11.3359 0 20.0059 -4.22754 26 -12.6699c4.66992 -6.22559 6.99902 -15.7783 6.99902 -28.6641v-25.3389h-44.334v-21.6631c0 -11.3311 3.7793 -16.9971 11.335 -16.9971c5.33398 0 8.66895 2.88867 10 8.66211
c0 0.21875 0.0605469 0.998047 0.169922 2.33203c0.102539 1.33594 0.15918 3.16602 0.15918 5.49805zM367.672 108.339v-11.3389h22v11.3389c0 11.3311 -3.66406 16.9971 -10.999 16.9971c-7.33203 0 -11.001 -5.66602 -11.001 -16.9971zM251.002 269.34
c-7.11035 0 -10.665 5.66699 -10.665 16.9971v52.001c0 11.5527 3.55469 17.335 10.665 17.335c7.11133 0 10.665 -5.78223 10.665 -17.335v-52.001c0 -11.333 -3.55371 -16.9971 -10.665 -16.9971z" />
    <glyph glyph-name="uniF12D" unicode="&#xf12d;" 
d="M415.999 448c53.0244 0 96.001 -42.9756 96 -95.999v-320c0 -53.0234 -42.9756 -96 -96 -96h-320c-53.0234 0 -95.999 42.9756 -95.999 96v320c0 53.0234 42.9756 95.999 95.999 95.999h320zM184.575 19.7441c64.6094 0 100.288 36.6396 100.291 73.5039
c0 29.5361 -8.67188 47.2324 -35.6484 66.3037c-9.21582 6.56055 -26.8809 22.4326 -26.8809 31.7764c0 10.9443 3.10352 16.3203 19.584 29.2168c16.8643 13.1836 28.8008 31.7432 28.8008 53.2793c0 25.665 -11.4248 50.6885 -32.8965 58.9443h32.3516l22.9121 16.5117
h-102.079c-45.7607 0 -88.8008 -34.6562 -88.8008 -74.8154c0 -41.0566 31.168 -74.1768 77.7275 -74.1768l9.44043 0.320312c-3.00879 -5.79199 -5.18457 -12.2871 -5.18457 -19.0713c0 -11.4248 6.14355 -20.6719 13.8877 -28.1924l-17.6963 -0.160156
c-56.6719 0.03125 -100.288 -36.0967 -100.288 -73.5039c0 -36.8643 47.8086 -59.9365 104.479 -59.9365zM448 223.393v32.6074h-64v64h-31.9678v-64h-64.0312v-32.6074h64.0312v-63.9043h31.9678v63.9043h64zM234.048 271.84
c4.57617 -34.5605 -13.0889 -61.9199 -39.3281 -61.1182c-26.3037 0.766602 -51.2949 29.4072 -55.8398 63.9355c-4.54395 34.5596 13.0879 60.96 39.3604 60.1914c26.2715 -0.799805 51.2637 -28.5117 55.8076 -63.0088zM216.607 139.552
c21.248 -14.752 36.5127 -23.1035 40.7998 -40.001c0.768555 -3.42285 1.24902 -6.94336 1.24902 -10.5273c0 -29.7598 -19.1689 -53.0557 -74.2402 -53.0557c-39.168 0 -67.4561 24.7676 -67.4561 54.5918c0 29.2158 35.0723 53.5039 74.2402 53.0879
c9.12012 -0.0957031 17.6631 -1.59961 25.4072 -4.0957z" />
    <glyph glyph-name="uniF120" unicode="&#xf120;" 
d="M197.485 315.124c2.03223 -2.43848 27.2256 -36.5713 50.7939 -78.4258c-65.4219 -17.4727 -122.312 -16.6602 -125.968 -16.6602c8.93945 42.2607 36.9775 77.2061 75.1738 95.0859zM259.657 215.568c3.65723 -7.7207 7.7207 -15.4414 10.9717 -23.1621
c-1.62598 -0.40625 -3.65723 -1.21875 -5.2832 -1.625c-73.5488 -23.5684 -110.933 -90.21 -110.933 -90.21c-21.5371 23.9746 -34.9463 56.0762 -34.9463 91.0225v4.46973c2.4375 0 69.8916 -1.625 140.19 19.5049zM256 328.533c34.54 0 66.2354 -13.0029 90.21 -34.1328
c-0.407227 -0.407227 -19.9111 -30.0703 -71.1113 -49.1689c-23.5684 43.0732 -49.1689 76.8008 -51.2002 79.6445c10.1592 2.43848 21.1299 3.65723 32.1016 3.65723zM305.574 176.152c44.292 7.31445 82.4893 -4.87598 84.9277 -6.09473
c-6.0957 -37.791 -28.0381 -70.7051 -58.5146 -91.4287c-1.21875 8.5332 -8.5332 48.3555 -26.4131 97.5234zM383.594 448c70.7051 0 128.406 -57.7012 128.406 -128.406v-255.188c0 -70.7051 -57.7012 -128.406 -128.406 -128.406h-255.594
c-70.2988 0 -128 57.7012 -128 128v255.594c0 70.7051 57.7012 128.406 128 128.406h255.594zM412.444 159.898c2.03223 10.5654 3.25098 21.1299 3.25098 32.1016s-1.21875 21.5361 -3.25098 32.1016c-2.03125 10.1592 -5.28223 20.3174 -9.3457 30.0703
c-4.06348 9.75195 -8.93945 18.6914 -14.6289 27.2246c-5.68848 8.5332 -12.1904 16.2539 -19.5049 23.5684s-15.0352 13.8164 -23.5684 19.5049c-8.5332 5.68945 -17.8789 10.5654 -27.2246 14.6289c-9.75293 4.06348 -19.9111 7.31445 -30.0703 9.3457
c-10.5654 2.03223 -21.1299 3.25098 -32.1016 3.25098c-10.5654 0 -21.5361 -1.21875 -32.1016 -3.25098c-10.1592 -2.03125 -20.3174 -5.28223 -30.0703 -9.3457c-9.75195 -4.06348 -18.6914 -8.93945 -27.2246 -14.6289
c-8.5332 -5.68848 -16.2539 -12.1904 -23.5684 -19.5049s-13.8164 -15.0352 -19.5049 -23.5684c-5.68945 -8.5332 -10.5654 -17.8789 -14.6289 -27.2246c-4.06348 -9.75293 -7.31445 -19.9111 -9.3457 -30.0703c-2.03223 -10.5654 -3.25098 -21.1299 -3.25098 -32.1016
c0 -10.5654 1.21875 -21.5361 3.25098 -32.1016c2.03125 -10.1592 5.28223 -20.3174 9.3457 -30.0703c4.06348 -9.75195 8.93945 -18.6914 14.6289 -27.2246c5.68848 -8.5332 12.1904 -16.2539 19.5049 -23.5684s15.0352 -13.8164 23.5684 -19.5049
c8.5332 -5.68945 17.8789 -10.5654 27.2246 -14.6289c9.75293 -4.06348 19.9111 -7.31445 30.0703 -9.3457c10.5654 -2.03223 21.1299 -3.25098 32.1016 -3.25098s21.5361 1.21875 32.1016 3.25098c10.1592 2.03125 20.3174 5.28223 30.0703 9.3457
c9.75195 4.06348 18.6914 8.93945 27.2246 14.6289c8.5332 5.68848 16.2539 12.1904 23.5684 19.5049s13.8164 15.0352 19.5049 23.5684c5.68945 8.5332 10.5654 17.8789 14.6289 27.2246c4.06348 9.75293 7.31445 19.9111 9.3457 30.0703zM279.975 170.058
c19.5049 -49.9814 27.2256 -91.835 29.2568 -103.619c-16.2539 -6.9082 -34.5391 -10.9717 -53.2314 -10.9717c-31.6953 0 -60.5459 10.9717 -83.708 28.8506c0 0.8125 26.4131 57.2949 106.87 85.333c0.40625 0 0.8125 0.407227 0.8125 0.407227zM361.244 278.553
c19.0986 -23.1621 30.4766 -52.8262 30.8828 -85.334c-2.03125 0.40625 -48.3555 10.5654 -95.0859 4.46973c-0.8125 2.03223 -2.03125 4.4707 -2.84375 6.9082c-2.84473 6.9082 -5.68945 13.4102 -8.94043 19.9111c54.0449 21.9434 75.9873 53.6387 75.9873 54.0449z" />
    <glyph glyph-name="uniF138" unicode="&#xf138;" 
d="M483.832 419.836c18.7744 -18.7754 28.1631 -41.3926 28.1641 -67.835v-319.999c0 -26.4424 -9.38867 -49.0566 -28.167 -67.8359c-18.7705 -18.7783 -41.3857 -28.167 -67.8271 -28.167h-319.999c-26.4424 0 -49.0566 9.38867 -67.835 28.167
c-18.7754 18.7793 -28.1641 41.3945 -28.1641 67.8359v319.999c0 26.4424 9.38867 49.0566 28.1641 67.835c18.7783 18.7744 41.3926 28.1641 67.835 28.1641h320.002c26.4424 0 49.0576 -9.38965 67.8271 -28.1641zM156.002 19.3369v231.333h-77v-231.333h77z
M149.006 293.5c7.99902 7.67188 11.9941 17.1699 11.9951 28.499c-0.220703 11.5547 -4.22168 21.1123 -11.998 28.6689c-7.7793 7.55566 -18.1133 11.335 -31.002 11.335c-12.8867 0 -23.3848 -3.7793 -31.499 -11.335c-8.1084 -7.55664 -12.167 -17.1143 -12.167 -28.6689
c0 -11.333 3.94336 -20.832 11.8359 -28.499c7.8916 -7.66797 18.166 -11.502 30.8311 -11.502h0.335938c13.1123 0 23.6699 3.83398 31.668 11.502zM433.002 19.3369h0.00488281v132.677c0 34.2139 -8.10938 60.1064 -24.332 77.6621
c-16.2217 17.5527 -37.6689 26.332 -64.3359 26.332c-29.8213 0 -52.8115 -12.6826 -69.001 -37.9951v32.6602h-77.001c0.666992 -14.668 0.666992 -91.7822 0 -231.335h77.001v129.332c0 8.44238 0.775391 14.6631 2.33398 18.6582
c3.32812 7.7832 8.32617 14.3955 14.999 19.8369c6.66406 5.44531 14.8906 8.16699 24.667 8.16699c25.7793 0 38.6641 -17.4473 38.6641 -52.332v-123.663h77z" />
    <glyph glyph-name="uniF10B" unicode="&#xf10b;" 
d="M483.832 419.836c18.7744 -18.7754 28.1631 -41.3926 28.1641 -67.835v-319.999c0 -26.4424 -9.38867 -49.0566 -28.167 -67.8359c-18.7705 -18.7783 -41.3857 -28.167 -67.8271 -28.167h-319.999c-26.4424 0 -49.0566 9.38867 -67.835 28.167
c-18.7754 18.7793 -28.1641 41.3945 -28.1641 67.8359v319.999c0 26.4424 9.38867 49.0566 28.1641 67.835c18.7783 18.7744 41.3926 28.1641 67.835 28.1641h320.002c26.4424 0 49.0576 -9.38965 67.8271 -28.1641zM391.67 250.998
c13.999 10.0049 25.6699 22.1152 35.002 36.3369c-12.4424 -5.55469 -25.8828 -9.33105 -40.3232 -11.334c15.1045 8.88965 25.4443 21.8906 30.998 38.9971c-14.4395 -8.44043 -29.335 -14.1104 -44.6689 -16.999c-13.5537 14.668 -30.5576 22.0029 -51.0068 22.0029
c-19.3311 0 -35.833 -6.83594 -49.4961 -20.5029c-13.668 -13.668 -20.502 -30.165 -20.502 -49.501c0 -6.44238 0.557617 -11.7783 1.66602 -16c-28.665 1.55371 -55.5557 8.7793 -80.666 21.667c-25.1074 12.8877 -46.4453 30.1084 -63.999 51.665
c-6.44434 -11.1113 -9.66406 -22.8877 -9.66406 -35.334c0 -25.333 10.1104 -44.7744 30.333 -58.333c-10.4463 0.225586 -21.5576 3.11426 -33.332 8.66602v-0.666992c0 -16.665 5.55566 -31.4971 16.6689 -44.499c11.1113 -13 24.7764 -21.0479 40.998 -24.1641
c-6.44238 -1.77344 -12.1113 -2.66113 -17 -2.66113c-2.8877 0 -7.2207 0.44043 -12.9961 1.32812c4.66699 -14.001 12.9424 -25.5547 24.834 -34.665c11.8877 -9.12109 25.3896 -13.7842 40.499 -14c-25.7793 -20.0059 -54.7793 -30.0049 -87.0029 -30.0049
c-5.77441 0 -11.333 0.334961 -16.666 0.998047c32.8906 -20.8799 68.668 -31.332 107.331 -31.332c24.8877 0 48.2246 3.94727 69.9971 11.8428c21.7822 7.88281 40.4463 18.4434 56.0029 31.6592c15.5537 13.2207 28.9434 28.4482 40.1582 45.668
c11.2275 17.2207 19.5625 35.2207 25.0039 54.002c5.44141 18.7725 8.16699 37.4951 8.16699 56.1631c0 4.00684 -0.113281 7.00098 -0.335938 9.00098z" />
    <glyph glyph-name="uniF129" unicode="&#xf129;" 
d="M265.711 271.642c0 -8.87793 -0.984375 -24.6123 -12.293 -35.9844c-7.90918 -7.89355 -21.1455 -13.7754 -33.4277 -13.7754c-42.3115 0 -61.4717 54.6885 -61.4717 87.6865c0 12.8545 2.42969 26.1162 10.7998 36.4824c7.88867 9.8623 21.6279 16.2637 34.4502 16.2637
c40.7871 0 61.9424 -55.1865 61.9424 -90.6729zM239.145 142.036c37.4033 -26.6191 53.6309 -39.876 53.6357 -65.0859c0 -30.5098 -25.084 -53.2314 -72.3037 -53.2314c-52.6084 0 -86.5391 25.1572 -86.5391 60.1562c0 34.9834 31.4639 46.8213 42.2744 50.7393
c20.6426 6.94531 47.2031 7.91406 51.6396 7.91406c4.91309 0 7.375 0 11.293 -0.492188zM256 448c141.386 0 256 -114.614 256 -256s-114.614 -256 -256 -256s-256 114.614 -256 256s114.614 256 256 256zM196.362 3.07031c84.5703 0 129.349 46.79 129.354 93.1289
c0.0107422 34.0361 -19.6631 50.7969 -41.3057 69.0195l-17.7197 13.7656c-5.39453 4.47266 -12.7803 10.3809 -12.7803 21.1973c0 10.8584 7.37988 17.7559 13.7861 24.1514c20.6426 16.2432 41.2686 33.5381 41.2686 69.9775c0 37.4717 -23.5703 57.1816 -34.873 66.5371
h30.4629l31.9775 20.0918h-96.8896c-26.5771 0 -64.8975 -6.28516 -92.9404 -29.4473c-21.1406 -18.2324 -31.4541 -43.3848 -31.4541 -66.0225c0 -38.4307 29.5049 -77.3896 81.6113 -77.3896c4.92383 0 10.3086 0.482422 15.7236 0.984375
c-2.42969 -5.91797 -4.8916 -10.8525 -4.8916 -19.2168c0 -15.2744 7.84082 -24.6338 14.75 -33.4961c-22.1406 -1.52441 -63.4727 -3.9707 -93.9463 -22.7012c-29.0176 -17.2588 -37.8545 -42.374 -37.8545 -60.1045c0 -36.4922 34.4023 -70.4756 105.722 -70.4756z
M408.579 198.023h49.4346v24.6025h-49.4346v49.2666h-24.3359v-49.2666h-49.1992v-24.6025h49.1992v-49.5713h24.3359v49.5713z" />
    <glyph glyph-name="uniF113" unicode="&#xf113;" 
d="M255.989 140.751c-28.2539 0 -51.2598 22.9951 -51.2285 51.2598c0.0107422 11.1572 3.62988 21.458 9.69336 29.873c9.33203 12.9102 24.459 21.3652 41.5664 21.3652c17.0967 0 32.2344 -8.46582 41.5459 -21.376c6.04297 -8.41406 9.69336 -18.7158 9.69336 -29.873
c0 -28.2646 -23.0264 -51.249 -51.2705 -51.249zM367.903 254.695l-49.1973 -0.165039l-0.165039 49.3623l42.9385 0.134766l6.42383 0.0205078v-6.39355v-42.959zM256 448c141.168 0 256 -114.842 256 -256c0 -141.147 -114.853 -256 -256 -256
c-141.158 0 -256 114.853 -256 256c0 141.158 114.842 256 256 256zM401.592 221.873v59.4375c0 31.0381 -25.2432 56.2715 -56.2812 56.2715h-178.631c-31.0391 0 -56.2715 -25.2334 -56.2715 -56.2715v-59.4375v-119.204c0 -31.0488 25.2324 -56.2812 56.2715 -56.2812
h178.641c31.0283 0 56.2715 25.2324 56.2715 56.2812v119.204zM335.638 192c0 10.5596 -2.13477 20.6543 -5.91895 29.873h43.4844v-119.204c0 -15.4053 -12.5283 -27.8828 -27.9033 -27.8828h-178.631c-15.3955 0 -27.9033 12.4775 -27.9033 27.8828v119.204h43.4639
c-3.75293 -9.21875 -5.85742 -19.3135 -5.85742 -29.873c0 -43.8975 35.71 -79.6377 79.6279 -79.6377s79.6377 35.7402 79.6377 79.6377z" />
    <glyph glyph-name="uniF11B" unicode="&#xf11b;" 
d="M477.675 320.502c22.8818 -39.2197 34.3252 -82.0557 34.3242 -128.503c0 -46.4414 -11.4424 -89.2764 -34.3291 -128.5c-22.8906 -39.2197 -53.9424 -70.2803 -93.1631 -93.167c-39.2227 -22.8887 -82.0596 -34.333 -128.504 -34.333s-89.2764 11.4443 -128.502 34.333
c-39.2227 22.8945 -70.2754 53.9473 -93.167 93.167c-22.8877 39.2275 -34.334 82.0557 -34.334 128.5c0 46.4424 11.4434 89.2783 34.3369 128.503c22.8926 39.2236 53.9453 70.2764 93.1689 93.1641c39.2207 22.8906 82.0566 34.334 128.502 34.334
c46.4502 0 89.2725 -11.4434 128.5 -34.334c39.2207 -22.8916 70.2734 -53.9443 93.167 -93.1641zM256.004 410.666c-16.8877 0 -34.1094 -2.10938 -51.668 -6.33203c29.1123 -37.7754 56.4434 -80.2197 81.9971 -127.335c15.3359 5.77734 29.7793 12.5029 43.335 20.1699
c13.5615 7.66699 24.2764 14.5 32.1719 20.501c7.8877 5.99902 15.166 12.3359 21.8311 19c6.66406 6.6709 10.8311 11.165 12.4971 13.5029l4.16699 5.8291c-41.1094 36.4424 -89.2227 54.6641 -144.331 54.6641zM84.6738 327.675
c-21.332 -26.8896 -35.5537 -57.1162 -42.6689 -90.6699c67.1123 -0.00292969 134.443 8.88672 201.999 26.6641c-26.668 47.332 -53.7773 89.335 -81.332 126.001c-30.6699 -14.4424 -56.666 -35.1123 -77.998 -61.9951zM52.002 113.16
c9.77637 -24.9922 23.5527 -47.3867 41.3301 -67.1641c11.1113 19.7773 24.834 38.2715 41.167 55.4932c16.332 17.2275 32.166 31.0605 47.5 41.5088c15.334 10.4473 29.834 19.4414 43.499 27.0049c13.6611 7.55176 24.7197 12.8867 33.168 15.999l12.3301 4.33301
c0.896484 0.224609 2.33789 0.610352 4.34473 1.16602c2.00098 0.556641 3.43457 1.05371 4.33496 1.49805c-4.66699 10.8916 -10.5557 23.2256 -17.668 37.002c-69.1113 -20.6709 -143.892 -31.001 -224.34 -31.001
c-0.219727 -1.55371 -0.333984 -3.8877 -0.333984 -7.00098c0 -27.5576 4.88867 -53.8398 14.668 -78.8389zM256.004 -26.6709c29.3369 0.00390625 57.7764 5.77832 85.333 17.3389c-9.33008 53.5557 -24.8936 108.894 -46.6641 166.004h-0.671875l-0.663086 -0.334961
c-3.55469 -1.33496 -8.33398 -3.17285 -14.335 -5.50586c-6.00586 -2.3252 -17.2217 -7.77539 -33.665 -16.3252c-16.4473 -8.56641 -31.668 -17.6768 -45.668 -27.3369c-14 -9.66895 -28.5547 -22.3975 -43.667 -38.1719
c-15.1152 -15.7744 -26.5576 -32.2207 -34.335 -49.3369l-5 3.66895c40.8896 -33.3311 87.334 -50 139.336 -50zM440.014 73.8311c16.4375 25.4434 27.1055 53.2842 31.9961 83.5068c-46.667 13.3281 -92.1113 16.5566 -136.334 9.66016
c19.3398 -53.1074 33.5537 -105.225 42.6729 -156.335c24.6592 16.6611 45.2188 37.7207 61.665 63.168zM471.339 194.999l3.33496 -0.666016c-0.658203 51.5605 -17.2207 97.1143 -49.6641 136.67l-0.334961 -0.335938
c-1.99805 -2.66309 -4.10742 -5.38379 -6.33301 -8.16699c-2.22949 -2.77832 -7.05664 -7.7207 -14.5039 -14.8311c-7.44336 -7.10938 -15.3311 -13.832 -23.666 -20.1719c-8.33887 -6.33203 -19.4414 -13.5498 -33.3262 -21.6631
c-13.8965 -8.11328 -28.5117 -15.2773 -43.8467 -21.5039c5.56152 -11.7744 10.4521 -22.3311 14.6797 -31.6641c0.430664 -1.33301 1.15918 -3.28125 2.15723 -5.83398c1 -2.55762 1.83105 -4.3916 2.50293 -5.50391c7.99805 1.10938 16.2734 1.89551 24.8271 2.33398
c8.55078 0.441406 16.7246 0.666016 24.4961 0.666016c7.7793 0 15.4414 -0.167969 23.0059 -0.499023c7.55176 -0.336914 14.6641 -0.776367 21.3281 -1.33496c6.67285 -0.555664 12.9492 -1.16504 18.8398 -1.83203c5.88379 -0.666992 11.2256 -1.3877 15.9971 -2.16504
c4.7793 -0.77832 8.83789 -1.44824 12.1709 -2c3.33203 -0.552734 6.1123 -1.05664 8.33496 -1.49805z" />
    <glyph glyph-name="uniF127" unicode="&#xf127;" 
d="M331.102 448c1.17383 0 2.2207 -0.777344 2.5332 -1.90918c0.327148 -1.13086 -0.137695 -2.3418 -1.13184 -2.97168l-34.9043 -21.9434c-0.412109 -0.270508 -0.90918 -0.407227 -1.40625 -0.407227h-40.5205c15.3457 -12.6855 47.2568 -39.0762 47.2568 -90.1455
c0 -50.7939 -29.8018 -74.2764 -56.0977 -94.9883l-0.862305 -0.873047c-8.26953 -8.22754 -17.6396 -17.5547 -17.6396 -31.6836c0 -14.3721 9.37012 -22.1299 16.8945 -28.3633l24.3496 -18.9414c28.8662 -24.3076 56.0605 -47.2031 56.0498 -93.582
c0 -62.7021 -60.2061 -126.181 -175.267 -126.181c-98.9541 0 -143.244 47.9697 -143.244 95.4961c0 11.9453 3.70117 53.1367 51.3281 81.4521c40.3232 24.7832 95.5273 28.5693 125.187 30.6006l2.06738 0.142578l-1.16309 1.49609
c-9.24805 11.8184 -18.8135 24.0488 -18.8135 43.8779c0 10.1836 2.7334 16.709 5.62012 23.625l0.994141 2.41699c-6.74707 -0.629883 -14.3926 -1.33789 -21.2988 -1.33789c-71.8232 0 -110.582 54.0244 -110.582 104.86c0 32.9961 15.9111 66.4248 42.5713 89.4268
c33.8994 28.0039 71.5645 39.9326 125.975 39.9326h122.104zM183.029 -36.0117c60.4229 0 97.9658 27.6338 97.9707 72.124c0 34.9258 -23.5938 53.2637 -72.6689 88.1885c-5.30859 0.666992 -8.65039 0.666992 -15.2969 0.666992
c-0.391602 0 -39.6318 -0.507812 -70.0312 -10.7393c-37.96 -13.7539 -57.2344 -36.8877 -57.2344 -68.7246c0 -48.7588 47.124 -81.5156 117.261 -81.5156zM182.368 232.493c15.9053 0 34.1113 7.50391 45.3057 18.6768c16.6455 16.7354 16.6455 40.832 16.6455 48.7529
c0 50.207 -29.8857 122.85 -83.9316 122.85c-17.6504 0 -35.9678 -8.64551 -46.665 -22.0293c-9.85547 -12.209 -14.6465 -28.3789 -14.6465 -49.4453c0 -41.4287 24.4297 -118.805 83.292 -118.805zM502.239 208.873c1.46387 0 2.64355 -1.17871 2.64355 -2.64355v-28.0361
c0 -1.46387 -1.18457 -2.64355 -2.64355 -2.64355h-64.3418v-64.5371c0 -1.4541 -1.18945 -2.64355 -2.64355 -2.64355h-27.6758c-1.45996 0 -2.64355 1.18945 -2.64355 2.64355v64.5264h-64.0186c-1.45996 0 -2.64453 1.19043 -2.64453 2.64453v28.0459
c0 1.45898 1.18457 2.64355 2.64453 2.64355h64.0186v64.1143c0 1.45898 1.18359 2.64355 2.64355 2.64355h27.6758c1.4541 0 2.64355 -1.18457 2.64355 -2.64355v-64.1143h64.3418z" />
    <glyph glyph-name="uniF11F" unicode="&#xf11f;" 
d="M269.376 190.038c-98.6768 -31.8975 -151.187 -118.839 -155.521 -126.261c-30.5586 33.9209 -49.1865 78.7871 -49.1865 127.93c0 1.95801 0.0390625 3.9043 0.0976562 5.84766c8.37207 -0.171875 101.09 -1.36621 196.639 27.2285
c5.47559 -10.7197 10.709 -21.6006 15.5117 -32.4697c-2.53223 -0.713867 -5.0459 -1.4707 -7.54102 -2.27539zM382.834 334.827c-3.44141 -4.90234 -32.2441 -43.6152 -100.279 -69.1143c-31.3516 57.6035 -66.1025 104.926 -71.3896 112.007
c14.3867 3.46777 29.3984 5.32031 44.8359 5.32031c48.6152 0 93.0439 -18.2354 126.833 -48.2129zM245.594 254.206c-89.498 -23.7666 -168.324 -23.4248 -176.883 -23.3115c12.4072 59.3721 52.418 108.717 105.946 133.963
c5.04297 -6.91699 39.2354 -54.2969 70.9365 -110.651zM288.661 160.25c0.418945 0.146484 0.838867 0.282227 1.25879 0.425781c26.8623 -69.8027 37.9707 -128.305 40.8193 -145.094c-22.9746 -9.7832 -48.2334 -15.2051 -74.7393 -15.2051
c-44.2314 0 -85 15.0918 -117.44 40.3896c3.44238 7.04004 42.1826 81.8779 150.102 119.483zM426 448c47.2998 0 86 -38.6992 86.001 -86v-340c0 -47.3008 -38.7002 -86 -86.001 -86h-340c-47.3008 0 -86 38.6992 -86 86v340c0 47.3008 38.6992 86 86 86h340zM256 -32
c123.517 0 224 100.484 224 224c0 123.514 -100.483 224 -224 223.999c-123.514 0 -224 -100.485 -224 -223.999c0 -123.516 100.486 -224 224 -224zM325.732 169.518c59.957 9.59766 112.633 -6.11523 119.18 -8.18066
c-8.53027 -53.2354 -39.085 -99.2139 -82.0098 -128.235c-1.95996 11.6387 -12.1445 67.6475 -37.1699 136.416zM297.266 237.262c70.7422 28.8828 102.806 69.9824 106.837 75.4404c26.6465 -32.5586 42.7822 -74.0264 43.2061 -119.186
c-6.30859 1.33398 -69.5635 14.1631 -133.229 6.1582c-1.33984 3.27637 -2.71289 6.56738 -4.12109 9.87402c-3.97266 9.33008 -8.24023 18.5986 -12.6934 27.7129z" />
    <glyph glyph-name="uniF11E" unicode="&#xf11e;" 
d="M244.66 250.793c-76.4951 -20.0986 -144.423 -21.417 -160.812 -21.417h-1.73828c11.7764 54.2832 48.4609 99.3936 97.46 122.771c6.13281 -8.43164 36.5918 -50.9336 65.0898 -101.354zM286.899 161.334c0.0712891 0.0224609 0.130859 0.0498047 0.202148 0.0654297
c24.4072 -63.624 34.7832 -117.019 37.6211 -133.561c-21.1611 -8.88379 -44.3701 -13.8076 -68.7227 -13.8076c-40.8291 0 -78.4609 13.8232 -108.533 36.9941c5.08789 9.96289 41.9736 76.4023 139.433 110.309zM373.221 325.272
c-4.95605 -6.77539 -31.8584 -40.377 -91.8877 -63.0908c-27.7842 50.8135 -58.2266 92.8682 -65.46 102.641c12.8984 2.99512 26.3252 4.58594 40.127 4.58594c44.8604 0 85.8965 -16.6729 117.221 -44.1357zM268.179 191.183
c-88.9131 -28.7373 -137.804 -104.769 -145.32 -117.183c-27.8496 31.374 -44.7891 72.6006 -44.7949 117.728c0 1.46484 0.0380859 2.9248 0.0820312 4.39062c1.06152 -0.0224609 2.62012 -0.0380859 4.66211 -0.0380859c22.0654 0 98.7129 1.83496 177.691 25.2832
c4.79297 -9.38477 9.36816 -18.9004 13.6006 -28.4043c-1.98242 -0.561523 -3.96484 -1.15527 -5.9209 -1.77637zM484.766 448c15.0439 0 27.2344 -12.1904 27.2344 -27.2344v-457.531c0 -15.0439 -12.1904 -27.2344 -27.2344 -27.2344h-457.531
c-15.0391 0 -27.2344 12.1904 -27.2344 27.2344v457.531c0 15.0439 12.1953 27.2344 27.2344 27.2344h457.531zM256 -18.3281c116.126 0 210.606 94.3496 210.606 210.328s-94.4805 210.323 -210.606 210.328c-116.137 -0.00488281 -210.606 -94.3496 -210.606 -210.328
s94.4697 -210.328 210.606 -210.328zM322.658 170.126c12.4297 1.92773 24.5 2.69629 35.834 2.67969c37.1807 0.0107422 66.2666 -8.12695 73.0312 -10.1914c-8.03906 -48.4814 -35.8018 -90.4111 -74.7578 -117.253c-2.38574 13.6816 -11.9824 63.7324 -34.1074 124.765z
M296.045 233.739c62.252 25.6543 92.3066 61.2549 98.5166 69.3105c24.0205 -29.7666 38.6338 -67.3828 39.3145 -108.332c-7.98438 1.61816 -41.8525 7.95215 -82.3115 7.95215c-13.0508 0 -26.7881 -0.664062 -40.5625 -2.3584
c-1.16016 2.82129 -2.33105 5.6543 -3.55176 8.49219c-3.57227 8.39844 -7.41797 16.7324 -11.4053 24.9355z" />
    <glyph glyph-name="uniF126" unicode="&#xf126;" 
d="M374 448c76.2002 0 138 -61.7998 138 -138v-236c0 -76.2002 -61.7998 -138 -138 -138h-236c-76.2002 0 -138 61.7998 -138 138v236c0 76.2002 61.7998 138 138 138h236zM332 65.5996v55.1006c-9 -2.60059 -16.5 -4.7002 -23.2998 -6.90039
c-13.4004 -3.89941 -24.6006 -1.2998 -33.7002 7.2998c-0.900391 1.30078 -2.2998 3 -2.7002 4.80078c-1.2998 6.89941 -2.2998 14.1992 -2.2998 21.1992v72.9004h60v47h-60v59h-37.2998c-0.800781 -2 -1.31348 -4.7998 -1.31348 -7.40039
c-0.398438 -1.2998 -0.811523 -2.2998 -0.811523 -3.59961c-3.90039 -21.5996 -15.125 -36.7002 -34.125 -44.9004c-5.60059 -2.59961 -10.4502 -3 -16.4502 -2.59961v-47.5h27.7002c0.5 -66 0.299805 -99.7002 0.299805 -101.4v-3.89941
c4 -28.9004 18.6748 -46.2002 45.375 -52.6006c10.7998 -3 22.4746 -4.2998 34.1748 -4.2998c15.1006 0.400391 29.4502 3 44.4502 7.7998z" />
    <glyph glyph-name="uniF103" unicode="&#xf103;" 
d="M483.708 447.991c15.6133 0 28.2666 -12.6367 28.2754 -28.2412v-455.467c0 -15.5791 -12.6709 -28.249 -28.2832 -28.249h-130.458v198.278h66.5312l10.0068 77.2705h-76.5293v49.3252c0 22.3652 6.1875 37.6162 38.2646 37.6162l40.9199 0.0166016v69.1104
c-7.07227 0.918945 -31.3262 3.03516 -59.6094 3.03516c-58.9951 0 -99.3672 -36.0225 -99.3672 -102.141v-56.9883h-66.7168v-77.2793h66.7168v-198.27h-245.201c-15.5957 0 -28.2578 12.6533 -28.2578 28.2744v455.45c0 15.6211 12.6621 28.2578 28.2578 28.2578h455.45z
" />
    <glyph glyph-name="uniF11D" unicode="&#xf11d;" 
d="M183.637 87.1309c23.8213 33.7812 56.7852 58.417 94.0049 71.708c8.86035 -28.3916 14.709 -57.8828 16.9062 -87.7627c-12.3359 -3.90039 -25.0605 -6.66406 -38.6357 -6.66406c-26.8682 0 -51.7871 8.43555 -72.2754 22.7188zM268.105 185.424
c-41.6846 -14.8164 -78.5137 -42.0742 -105.771 -79.4697c-20.9131 22.7207 -33.9219 52.7441 -33.9219 86.1348c13.1504 -1.80957 26.4424 -3.47363 39.5938 -3.47363c31.4043 0 62.0303 6.91016 90.2803 19.3887c3.58008 -7.47852 6.77051 -14.8174 9.81934 -22.5801z
M326.52 298.285c-15.4902 -21.3389 -34.4521 -38.7773 -55.9336 -52.0693c-13.5752 24.3867 -29.7744 47.2129 -48.0303 68.4111c10.7764 2.90625 21.7295 4.96191 33.3564 4.96191c26.1943 0 50.4033 -7.87012 70.6074 -21.3037zM245.243 233.347
c-35.0215 -15.0986 -74.3311 -19.6719 -113.251 -12.4766c8.3291 35.7305 31.7236 65.3623 62.9883 82.5195c19.3887 -21.4443 36.1553 -44.9814 50.2627 -70.043zM304.934 166.603c24.6348 4.99805 50.4043 4.85645 76.0322 -0.140625
c-7.23047 -35.3047 -29.3838 -65.0791 -59.2656 -83.2275c-2.76465 28.3916 -8.33008 56.2168 -16.7666 83.3682zM283.489 221.013c24.7764 14.8164 46.7891 34.6309 64.7959 58.6992c21.0186 -22.2607 34.3105 -52.0352 35.0205 -84.8584
c-29.7754 5.24512 -59.5508 5.10449 -88.0479 -1.24121c-3.61719 9.25195 -7.47852 18.3965 -11.7686 27.4004zM0 448h512v-512h-512v512zM255.912 36.0186c85.9912 0 156.069 70.0781 156.069 156.07s-70.0781 155.893 -156.069 155.893
c-85.9932 0 -155.894 -69.9004 -155.894 -155.893s69.9004 -156.07 155.894 -156.07z" />
    <glyph glyph-name="uniF133" unicode="&#xf133;" 
d="M283.595 165.824c8.18652 -4.78418 13.8828 -16.2295 13.8828 -25.7979c0 -10.2988 -4.63477 -21.1143 -12.8213 -26.624c-8.91797 -6.26074 -22.1064 -5.51953 -32.4482 -5.51953h-27.9355v62.7197h30.4365c9.26953 0 20.6777 0 28.8857 -4.77832zM272.112 219.387
c-8.5498 -6.62402 -20.3203 -5.8877 -30.2988 -5.89355h-17.541v55.2002h13.2578c9.62207 0 24.6035 1.10352 32.8008 -3.6748c7.83398 -4.77832 12.1064 -13.6104 12.1064 -22.8105c0 -8.46973 -3.55176 -17.6641 -10.3252 -22.8213zM422 448c49.6963 0 90 -40.293 90 -90
v-332c0 -49.6963 -40.3037 -90 -90 -90h-332.011c-49.6963 0 -89.9893 40.3037 -89.9893 90v332c0 49.707 40.293 90 89.9893 90h332.011zM269.888 61.1465c63.7979 0 88.8213 39.835 88.8213 76.5811c0 39.707 -21.6426 56.166 -51.9463 62.4268v0.742188
c20.4375 6.10645 36.459 25.7598 36.459 54.458c0 37.168 -30.5439 58.2402 -63.6484 58.2402h-114.282v-252.448h104.597z" />
    <glyph glyph-name="uniF122" unicode="&#xf122;" 
d="M256 448c141.168 0 256 -114.842 256 -256c0 -141.147 -114.853 -256 -256 -256c-141.158 0 -256 114.853 -256 256c0 141.158 114.842 256 256 256zM342.547 69.9805v0h-0.0205078v43.8877c-13.9209 -9.16797 -27.9551 -13.7354 -42.0518 -13.7354
c-7.92969 0 -14.9316 1.85547 -21.1289 5.54688c-4.62988 2.7334 -8.87793 7.46582 -10.5898 12.0029c-1.72266 4.56836 -1.50586 13.9111 -1.50586 30.0488v71.3574h64.3555v49.7031h-64.3555v64.3555h-39.5869c-1.78418 -14.333 -5.02148 -26.1816 -9.77539 -35.4521
c-4.69141 -9.30078 -10.9512 -17.251 -18.7676 -23.9023c-7.78516 -6.63086 -20.458 -11.7139 -31.3887 -15.2617v-39.4316h37.8232v-97.6113c0 -12.7354 1.34082 -22.459 4.01172 -29.1621c2.6709 -6.69238 7.43457 -13.0137 14.3643 -18.9629
c6.89844 -5.90918 15.2402 -10.5186 25.0264 -13.7461c9.76562 -3.20703 17.293 -4.81543 30.0068 -4.81543c11.2197 0 21.6143 1.14453 31.2656 3.38281c9.67285 2.24707 20.459 6.20703 32.3174 11.7959z" />
    <glyph glyph-name="uniF13A" unicode="&#xf13a;" 
d="M403.564 73.4893h-28.0977l0.130859 16.3213c0 7.25293 5.95605 13.1865 13.2324 13.1865h1.79199c7.29297 0 13.2666 -5.93359 13.2666 -13.1865zM298.172 108.465c7.15625 0 12.9932 -4.78516 12.9932 -10.6562v-79.377
c0 -5.85352 -5.83691 -10.6318 -12.9932 -10.6318c-7.12793 0 -12.959 4.77832 -12.959 10.6318v79.377c0 5.86523 5.83105 10.6562 12.959 10.6562zM469.333 152.866v-151.006c0 -36.2217 -31.4082 -65.8604 -69.8027 -65.8604h-287.056
c-38.4053 0 -69.8076 29.6387 -69.8076 65.8604v151.006c0 36.2207 31.4023 65.8662 69.8076 65.8662h287.056c38.3945 0 69.8027 -29.6455 69.8027 -65.8662zM131.624 -14.5352l-0.0234375 159.067l35.585 -0.0117188v23.5693l-94.8574 0.141602v-23.1709
l29.6113 -0.0849609v-159.511h29.6846zM238.29 120.838h-29.667v-84.9414c0 -12.2871 0.745117 -18.4316 -0.0458984 -20.5986c-2.41211 -6.58789 -13.2549 -13.5859 -17.4814 -0.711914c-0.716797 2.25293 -0.0859375 9.05176 -0.0966797 20.7246l-0.120117 85.5273
h-29.502l0.0908203 -84.1846c0.0224609 -12.9023 -0.290039 -22.5225 0.102539 -26.9023c0.722656 -7.71973 0.466797 -16.7197 7.62891 -21.8623c13.3457 -9.61426 38.9287 1.43359 45.3291 15.1777l-0.0576172 -17.5391l23.8252 -0.0283203l-0.00585938 135.339v0z
M333.198 23.5693l-0.0625 70.6953c-0.0224609 26.9424 -20.1787 43.0762 -47.5361 21.2764l0.119141 52.5596l-29.6338 -0.0449219l-0.141602 -181.419l24.3711 0.352539l2.21875 11.2988c31.1348 -28.5645 50.7109 -8.98926 50.665 25.2812zM426.047 32.9385
l-22.2441 -0.119141c-0.0107422 -0.881836 -0.0449219 -1.90039 -0.0566406 -3.00977v-12.4131c0 -6.64453 -5.48926 -12.0547 -12.1572 -12.0547h-4.35742c-6.67871 0 -12.1689 5.41016 -12.1689 12.0547v1.37695v13.6533v17.6182h50.9385v19.1719
c0 14.0117 -0.358398 28.0176 -1.51855 36.0273c-3.64648 25.3389 -39.2139 29.3604 -57.1797 16.3896c-5.6377 -4.0498 -9.94336 -9.47168 -12.4473 -16.7539c-2.52539 -7.28711 -3.7832 -17.2422 -3.7832 -29.8887v-42.1553
c0.0117188 -70.0752 85.1289 -60.1709 74.9746 0.102539zM311.938 261.791c-1.53027 3.77246 -2.46289 7.66309 -2.83301 11.7197c-0.358398 4.08398 -0.580078 12.1396 -0.580078 24.2227v94.8564h27.1699v-109.454c0 -5.92773 4.89844 -10.7803 10.832 -10.7803
c5.96777 0 10.8486 4.85254 10.8486 10.7803v109.454h26.0322v-140.635h-33.0693l0.563477 11.6396c-2.26465 -4.72754 -5.03516 -8.27148 -8.32324 -10.6436c-3.2998 -2.38379 -7.08789 -3.53906 -11.3662 -3.53906c-4.88086 0 -8.9541 1.12695 -12.1406 3.36816
c-3.22559 2.27539 -5.60352 5.29004 -7.13379 9.01074zM211.724 341.22c0 13.5 1.12598 24.041 3.3623 31.6416c2.25195 7.57129 6.29688 13.6592 12.1562 18.25c5.84277 4.61328 13.3242 6.92285 22.4199 6.92285c7.65234 0 14.2061 -1.50195 19.6787 -4.44238
c5.50098 -2.95898 9.74512 -6.79883 12.6855 -11.5371c2.99805 -4.75586 5.03516 -9.64258 6.12109 -14.6436c1.10938 -5.06836 1.65625 -12.7148 1.65625 -23.0283v-35.5674c0 -13.0439 -0.523438 -22.6416 -1.54199 -28.7344
c-1.00684 -6.10938 -3.16895 -11.7764 -6.51953 -17.0898c-3.2998 -5.25586 -7.56055 -9.1875 -12.7256 -11.6963c-5.22266 -2.53125 -11.1963 -3.77148 -17.9434 -3.77148c-7.53809 0 -13.8867 1.04102 -19.1201 3.21387
c-5.25098 2.16211 -9.30664 5.42188 -12.1973 9.75098c-2.91797 4.33496 -4.97168 9.61426 -6.21191 15.7695c-1.24609 6.15039 -1.83789 15.4004 -1.83789 27.7275l0.0175781 37.2344v0zM237.625 285.354c0 -7.96387 5.92773 -14.4668 13.1465 -14.4668
c7.22559 0 13.1309 6.50293 13.1309 14.4668v74.8662c0 7.95312 -5.90527 14.4551 -13.1309 14.4551c-7.21875 0 -13.1465 -6.50195 -13.1465 -14.4551v-74.8662zM146.102 247.552l-0.0507812 107.811l-39.2188 92.6377h33.7686l19.877 -68.8184l19.5986 68.6309h34.1221
l-36.8643 -92.3994l-0.0341797 -107.861h-31.1982z" />
    <glyph glyph-name="uniF10F" unicode="&#xf10f;" 
d="M0 448h512v-512h-512v512zM283.378 113.079c65.4512 0 109.828 59.6396 109.828 139.498c0 60.375 -51.1504 116.653 -128.908 116.653c-96.8213 0 -145.504 -69.3379 -145.504 -127.172c0 -35.0801 13.2695 -66.2051 41.6455 -77.8281
c4.63867 -1.90723 8.8916 -0.0712891 10.1875 5.05957c1.01562 3.62305 3.2041 12.5859 4.23633 16.3486c1.2959 5.12891 0.823242 6.89648 -2.94043 11.4141c-8.20996 9.64453 -13.4619 22.1611 -13.4619 39.9463c0 51.4121 38.4932 97.5039 100.234 97.5039
c54.7041 0 84.7236 -33.4355 84.7236 -78.0908c0 -58.6777 -25.9248 -108.182 -64.5576 -108.182c-21.3223 0 -37.1982 17.5752 -32.1221 39.1943c6.14453 25.7666 17.9785 53.6699 17.9785 72.2607c0 16.6992 -8.89355 30.5811 -27.4307 30.5811
c-21.8115 0 -39.3164 -22.5117 -39.3164 -52.7256c0 -19.2207 6.49414 -32.21 6.49414 -32.21s-22.2842 -94.4395 -26.1875 -110.982c-7.79102 -32.8926 -1.15527 -73.2236 -0.613281 -77.3379c0.349609 -2.39746 3.48242 -3.00977 4.86523 -1.1543
c1.97852 2.58984 27.957 34.5898 36.7793 66.5889c2.46875 9.10254 14.3018 56.0166 14.3018 56.0166c7.03711 -13.5498 27.7461 -25.3828 49.7676 -25.3828z" />
    <glyph glyph-name="uniF137" unicode="&#xf137;" 
d="M484.766 448c15.0439 0 27.2344 -12.1953 27.2344 -27.2344v-457.531c0 -15.0391 -12.1904 -27.2344 -27.2344 -27.2344h-457.531c-15.0391 0 -27.2344 12.1953 -27.2344 27.2344v457.531c0 15.0391 12.1953 27.2344 27.2344 27.2344h457.531zM143.872 -10.627v0
l-0.00585938 270.695h-84.1367v-270.695h84.1426zM101.817 297.069c26.9014 0 48.7539 21.8574 48.7539 48.792c0 26.9072 -21.8525 48.7598 -48.7539 48.7598c-26.9561 0 -48.793 -21.8633 -48.7979 -48.7598c0 -26.9346 21.8301 -48.792 48.7979 -48.792zM458.98 -10.6211
h-0.00488281v148.485c0 72.873 -15.7305 128.942 -100.924 128.942c-40.9111 0 -68.3633 -22.4414 -79.5996 -43.7217h-1.12793v36.9834h-80.7002v-270.689h84.0771v133.915c0 35.3008 6.72656 69.4961 50.4814 69.4961c43.1602 0 43.7324 -40.3828 43.7324 -71.7783
v-131.633h84.0654z" />
    <glyph glyph-name="uniF102" unicode="&#xf102;" 
d="M501.259 448c5.93457 0 10.7412 -4.80664 10.7363 -10.7412v-490.518c0 -5.92871 -4.8125 -10.7412 -10.7422 -10.7412h-140.926v171.076h64.3193c4.75293 0 8.60352 3.85645 8.60352 8.60938l0.0214844 69.3623c0 2.28223 -0.907227 4.46777 -2.51855 6.08496
c-1.61621 1.61621 -3.80273 2.52441 -6.08496 2.52441h-64.335v40.5801c0 19.501 4.65039 29.4043 30.0488 29.4043l36.8584 0.0166016c4.75293 0 8.60352 3.85059 8.60352 8.60352v64.3994c0 4.74805 -3.85059 8.59863 -8.59277 8.60352l-54.7158 0.0859375
c-61.4619 0 -101.178 -40.752 -101.178 -103.825v-47.8682h-55.0059c-4.75293 0 -8.60449 -3.85645 -8.60449 -8.60938v-69.3564c0 -4.75293 3.85156 -8.60449 8.60449 -8.60449h55v-171.082h-260.61c-5.92871 0 -10.7412 4.8125 -10.7412 10.7422v490.512
c0 5.92871 4.8125 10.7412 10.7412 10.7412h490.518z" />
    <glyph glyph-name="uniF13D" unicode="&#xf13d;" 
d="M225.067 67.7471v85.1016h20.1914v-111.36h-20.1914v12.1465c-8.02344 -9.19922 -15.6426 -13.6826 -23.0557 -13.6826c-6.50391 0 -10.9814 2.6416 -13.002 8.2793c-1.10547 3.37207 -1.78613 8.70996 -1.78613 16.5635v88.0537h20.1748v-81.9854
c0 -4.72266 0 -7.17871 0.19043 -7.83789c0.484375 -3.12695 2.02051 -4.71777 4.7168 -4.71777c4.04688 0 8.2793 3.11035 12.7617 9.43945zM303.758 154.21c8.01758 0 13.4209 -4.22168 16.1172 -12.5547c1.36133 -4.47168 2.05273 -11.8359 2.05273 -22.3867v-44.3477
c0 -10.2998 -0.702148 -17.7236 -2.05273 -22.4404c-2.67969 -8.28516 -8.08887 -12.5176 -16.1172 -12.5176c-7.17383 0 -14.1182 3.9873 -20.8613 12.3262v-10.8008h-20.1699v149.455h20.1699v-48.8145c6.53027 8.02832 13.4531 12.0811 20.8613 12.0811zM301.731 73.3301
v47.5186c0 10.0547 -2.94629 15.2021 -8.76953 15.2021c-3.33301 0 -6.69922 -1.58496 -10.0713 -4.9082v-67.8721c3.37695 -3.37695 6.74902 -4.96777 10.0713 -4.96777c5.82324 0 8.76953 4.96777 8.76953 15.0273zM113.941 169.913v21.0469h70.3457v-21.0469h-24.1729
v-128.419h-22.4463v128.419h-23.7266zM242.394 255.744c-6.57422 0 -9.73828 5.20117 -9.73828 15.6162v47.3379c0 10.4092 3.16406 15.5996 9.73828 15.5996c6.56348 0 9.72266 -5.18555 9.72266 -15.5996v-47.3379c0 -10.4092 -3.15918 -15.6162 -9.72266 -15.6162z
M368.02 154.21c10.1201 0 18.1484 -3.78516 23.7861 -11.416c4.2207 -5.62695 6.24121 -14.3311 6.24121 -26.2432v-23.0508h-40.3604v-19.7451c0 -10.3105 3.39355 -15.4521 10.3164 -15.4521c4.9668 0 7.85938 2.70117 9.00879 8.08887
c0.185547 1.10547 0.458008 5.58301 0.458008 13.6768h20.5771v-2.94727c0 -6.50879 -0.245117 -10.9863 -0.429688 -13.0068c-0.675781 -4.47168 -2.26562 -8.52441 -4.71191 -12.0859c-5.59375 -8.08887 -13.8623 -12.0762 -24.4014 -12.0762
c-10.54 0 -18.5898 3.80176 -24.4131 11.4062c-4.28613 5.58301 -6.48633 14.3633 -6.48633 26.1982v38.9941c0 11.9014 1.95508 20.6162 6.24121 26.2432c5.85059 7.63086 13.8574 11.416 24.1738 11.416zM377.889 110.298v10.3105
c0 10.2998 -3.36621 15.4473 -10.0547 15.4473c-6.73828 0 -10.1201 -5.1416 -10.1201 -15.4473v-10.3105h20.1748zM484.766 448c15.0439 0 27.2344 -12.1953 27.2344 -27.2344v-457.531c0 -15.0391 -12.1904 -27.2344 -27.2344 -27.2344h-457.531
c-15.0391 0 -27.2344 12.1953 -27.2344 27.2344v457.531c0 15.0391 12.1953 27.2344 27.2344 27.2344h457.531zM289.285 351.297v-88.9893c0 -7.94727 0.692383 -13.3232 1.81934 -16.7324c2.03223 -5.70312 6.55273 -8.36621 13.127 -8.36621
c7.43457 0 15.1807 4.52051 23.2852 13.8232v-12.2715h20.3984v112.536h-20.3984v-86.0098c-4.52051 -6.38379 -8.79688 -9.54297 -12.8711 -9.54297c-2.73438 0 -4.33008 1.6123 -4.77637 4.76562c-0.255859 0.669922 -0.255859 3.1543 -0.255859 7.93066v82.8564h-20.3281
zM212.268 314.603v-39.4023c0 -11.9609 2.04297 -20.8398 6.37793 -26.4658c5.64844 -7.68066 13.5791 -11.5254 23.748 -11.5254c10.2021 0 18.1494 3.84473 23.7861 11.5254c4.27637 5.62598 6.31836 14.5049 6.31836 26.4658v39.4023
c0 12.0264 -2.04199 20.8281 -6.31836 26.5098c-5.63672 7.70117 -13.584 11.5469 -23.7861 11.5469c-10.1689 0 -18.0996 -3.8457 -23.748 -11.5469c-4.33496 -5.68164 -6.37793 -14.4834 -6.37793 -26.5098zM157.734 389.779v0l-23.792 -0.00585938
c4.76562 -14.0039 9.72266 -28.0615 14.4941 -42.0762c7.24414 -21.0684 11.7812 -36.9463 13.8291 -47.7744v-61.1621h22.6045v61.1621l27.2012 89.8564h-22.8652l-15.4258 -59.3047zM417.111 31.6572c5.81152 25.2891 5.84473 52.8828 5.84961 78.9238
c0 26.0361 0.0332031 53.6455 -5.7793 78.9355c-4.08496 17.751 -18.6172 30.8555 -36.0957 32.8057c-41.4014 4.62402 -83.3145 4.64648 -125.031 4.62402c-41.7227 0.0224609 -83.6357 0 -125.031 -4.62402c-17.4795 -1.9502 -32 -15.0547 -36.0859 -32.8057
c-5.81641 -25.2842 -5.89355 -52.8994 -5.89355 -78.9355c0 -26.041 0 -53.6348 5.81738 -78.9238c4.09082 -17.752 18.6064 -30.8516 36.0908 -32.8066c41.3955 -4.62988 83.3037 -4.65137 125.037 -4.62988c41.7275 -0.0214844 83.625 0 125.031 4.62988
c17.4736 1.95508 32 15.0498 36.0908 32.8066z" />
    <glyph glyph-name="uniF130" unicode="&#xf130;" 
d="M0 448h512v-512h-512v512zM383.829 164.738c-10.5947 10.3428 -11.2656 16.3457 -2.75586 28.2832c9.31641 13.0381 19.3027 25.5527 28.6885 38.5215c8.75488 12.1152 17.7393 24.2119 22.3262 38.6992c2.93555 9.24805 0.336914 13.3252 -9.11035 14.959
c-1.63379 0.268555 -3.33789 0.268555 -4.99414 0.268555l-56.1689 0.0683594c-6.9209 0.109375 -10.7275 -2.91211 -13.1699 -9.04688c-3.31348 -8.29102 -6.71973 -16.5752 -10.6641 -24.5498c-8.9082 -18.1406 -18.8789 -35.6729 -32.8506 -50.499
c-3.09082 -3.26758 -6.51953 -7.41309 -11.667 -5.71094c-6.42676 2.35059 -8.33105 12.9629 -8.22168 16.5459l-0.0458984 64.8369c-1.25 9.24902 -3.31445 13.3936 -12.5156 15.1885h-58.3418c-7.76855 0 -11.6904 -3.02832 -15.8584 -7.88379
c-2.37402 -2.82715 -3.11426 -4.63867 1.81738 -5.5791c9.67285 -1.83398 15.1582 -8.10645 16.5918 -17.8076c2.31055 -15.5195 2.14941 -31.1025 0.807617 -46.6689c-0.37793 -4.54688 -1.16309 -9.07031 -2.95801 -13.3242
c-2.81934 -6.69629 -7.38965 -8.04297 -13.3691 -3.9209c-5.39453 3.71484 -9.20117 8.95605 -12.9453 14.2188c-13.9961 19.7783 -25.1465 41.0957 -34.2627 63.4961c-2.62012 6.47266 -7.16602 10.3877 -14.0186 10.5029
c-16.8438 0.270508 -33.7051 0.310547 -50.5732 -0.0224609c-10.1182 -0.177734 -13.1465 -5.1084 -9.00098 -14.3105c18.3408 -40.8271 38.7686 -80.5117 65.4395 -116.66c13.6855 -18.541 29.4053 -34.9385 49.7188 -46.5371
c23.002 -13.1465 47.7695 -17.1143 73.8848 -15.9043c12.2061 0.584961 15.875 3.7666 16.4365 15.9268c0.378906 8.33203 1.3418 16.6387 5.44141 24.1201c4.03027 7.34473 10.1475 8.73242 17.1992 4.16309c3.51562 -2.30469 6.47363 -5.19434 9.27148 -8.28418
c6.87402 -7.50488 13.5303 -15.2734 20.6514 -22.5322c8.9541 -9.11523 19.5723 -14.4873 32.8975 -13.3926l51.6211 -0.0224609c8.30762 0.561523 12.6309 10.75 7.86035 20.0488c-3.36035 6.49023 -7.76855 12.2686 -12.4297 17.8701
c-10.5498 12.6768 -22.9785 23.4727 -34.7314 34.9395z" />
    <glyph glyph-name="uniF125" unicode="&#xf125;" 
d="M483.832 419.836c18.7744 -18.7754 28.1631 -41.3926 28.1641 -67.835v-319.999c0 -26.4424 -9.38867 -49.0566 -28.167 -67.8359c-18.7705 -18.7783 -41.3857 -28.167 -67.8271 -28.167h-319.999c-26.4424 0 -49.0566 9.38867 -67.835 28.167
c-18.7754 18.7793 -28.1641 41.3945 -28.1641 67.8359v319.999c0 26.4424 9.38867 49.0566 28.1641 67.835c18.7783 18.7744 41.3926 28.1641 67.835 28.1641h320.002c26.4424 0 49.0576 -9.38965 67.8271 -28.1641zM374.338 20.999h0.000976562v60.332
c-19.5537 -12.4414 -38.8926 -18.6621 -57.999 -18.6621c-11.3389 0 -21.1123 2.55273 -29.334 7.66602c-6.44922 3.77734 -10.7812 8.7832 -13.002 14.999c-2.44531 6.66895 -3.66797 21.0039 -3.66797 43.0039v98.335h91.335v60.3291h-91.335v97.0029h-54.666
c-2.44629 -20.0029 -6.88867 -36.3359 -13.334 -49.002c-6.44336 -12.668 -15.1084 -23.665 -26.001 -32.9971c-10.666 -8.8916 -23.5527 -15.8906 -38.666 -21.001v-54.333h42.332v-134.67c0 -17.3281 1.88574 -30.7773 5.66797 -40.3262
c3.77539 -9.33301 10.333 -18.002 19.666 -26.002c9.55469 -8.22266 21.1104 -14.5576 34.665 -19.001c13.7803 -4.44434 29.3369 -6.66504 46.668 -6.66504c14.8877 0 29.2266 1.55762 43 4.66699c12.6699 2.88379 27.5605 8.3252 44.6699 16.3242z" />
    <glyph glyph-name="uniF108" unicode="&#xf108;" 
d="M0 448h512v-512h-512v512zM396.941 264.289c14.2119 10.251 26.54 23.0596 36.2871 37.6426c-13.042 -5.78418 -27.0557 -9.69434 -41.7676 -11.4531c15.0156 9.00195 26.5459 23.25 31.9746 40.2334c-14.0518 -8.33301 -29.6162 -14.3887 -46.1797 -17.6455
c-13.2646 14.1318 -32.1641 22.9619 -53.082 22.9619c-40.1592 0 -72.7227 -32.5596 -72.7227 -72.7188c0 -5.69824 0.646484 -11.249 1.8877 -16.5742c-60.4385 3.03613 -114.024 31.9863 -149.89 75.9854c-6.26172 -10.7432 -9.84766 -23.2334 -9.84766 -36.5625
c0 -25.2275 12.835 -47.4873 32.3496 -60.5283c-11.9229 0.37793 -23.1348 3.65039 -32.9385 9.09668c-0.00683594 -0.303711 -0.00683594 -0.608398 -0.00683594 -0.916016c0 -35.2334 25.0693 -64.623 58.3359 -71.3066
c-6.10254 -1.6582 -12.5283 -2.55176 -19.1602 -2.55176c-4.68555 0 -9.24219 0.457031 -13.6846 1.30859c9.25488 -28.8926 36.1133 -49.918 67.9365 -50.502c-24.8906 -19.5088 -56.2461 -31.1348 -90.3174 -31.1348c-5.87109 0 -11.6592 0.344727 -17.3477 1.02148
c32.1816 -20.6377 70.4072 -32.6748 111.475 -32.6748c133.763 0 206.908 110.809 206.908 206.911c0 3.14941 -0.0712891 6.28613 -0.209961 9.40723z" />
    <glyph glyph-name="uniF106" unicode="&#xf106;" 
d="M256 448c141.168 0 256 -114.842 256 -256c0 -141.147 -114.853 -256 -256 -256c-141.158 0 -256 114.853 -256 256c0 141.158 114.842 256 256 256zM370.203 250.592c11.5176 8.28027 21.5098 18.6641 29.3672 30.4609
c-10.5283 -4.69238 -21.9121 -7.84766 -33.8428 -9.27051c12.1992 7.30078 21.5107 18.8398 25.9443 32.6055c-11.415 -6.77441 -23.9951 -11.6621 -37.4316 -14.3018c-10.7656 11.4453 -26.0576 18.6025 -43.0107 18.6025c-32.5332 0 -58.9111 -26.3887 -58.9111 -58.9219
c0 -4.62988 0.505859 -9.11523 1.5166 -13.4365c-48.9609 2.47461 -92.3936 25.9238 -121.442 61.582c-5.07324 -8.70312 -7.9707 -18.8291 -7.9707 -29.6357c0 -20.4385 10.4043 -38.4834 26.2021 -49.0322c-9.65137 0.298828 -18.7363 2.95898 -26.6768 7.3623
c-0.00976562 -0.237305 -0.00976562 -0.495117 -0.00976562 -0.742188c0 -28.5645 20.3037 -52.374 47.2588 -57.7773c-4.93945 -1.35059 -10.1572 -2.05176 -15.5303 -2.05176c-3.78418 0 -7.48633 0.380859 -11.0742 1.06152
c7.49609 -23.418 29.2646 -40.4531 55.0439 -40.9268c-20.1699 -15.7979 -45.5674 -25.2227 -73.1826 -25.2227c-4.75391 0 -9.44531 0.27832 -14.0547 0.825195c26.0684 -16.7266 57.0449 -26.4502 90.3203 -26.4502c108.408 0 167.659 89.7539 167.659 167.618
c0 2.55664 -0.0615234 5.11426 -0.174805 7.65137z" />
    <glyph glyph-name="uniF12C" unicode="&#xf12c;" 
d="M235.52 271.36c0 -38.4004 -35.8398 -40.96 -35.8398 -40.96c-35.8398 0 -51.1992 43.5195 -51.1992 74.2393c0 33.2803 17.9199 43.5205 33.2793 43.5205c38.4004 0 53.7598 -51.2002 53.7598 -76.7998zM220.16 145.92
c33.2803 -25.5996 46.0801 -38.4004 46.0801 -56.3203c0 -25.5996 -23.04 -51.1992 -61.4404 -51.1992c-51.2002 0 -76.7998 28.1592 -76.7998 56.3193c0 25.6006 20.4805 38.4004 38.4004 43.5215c15.3594 5.11914 38.3994 7.67871 46.0801 7.67871v0h7.67969zM460.8 448
c28.1602 0 51.2002 -23.04 51.2002 -51.2002v-409.6c0 -28.1602 -23.04 -51.2002 -51.2002 -51.2002h-409.6c-28.1602 0 -51.2002 23.04 -51.2002 51.2002v409.6c0 28.1602 23.04 51.2002 51.2002 51.2002h409.6zM181.76 7.67969c92.1602 0 125.44 53.7607 125.439 99.8398
c0 40.9619 -28.1602 58.8809 -48.6406 74.2402c-5.11914 2.55957 -10.2393 5.12012 -12.7998 7.68066c-5.12012 2.55957 -10.2402 7.67969 -10.2402 15.3594c0 7.68066 5.12012 15.3604 10.2402 17.9199c23.04 15.3604 40.96 33.2803 40.96 69.1201
c0 28.1602 -12.7998 46.0801 -23.0391 56.3203h17.9199l2.56055 2.55957l17.9209 17.9189l7.67871 7.68066h-107.52c-71.6807 0 -104.96 -48.6406 -104.96 -92.1602c0 -38.4004 30.7197 -76.7998 81.9199 -76.7998h10.2402
c-2.56055 -5.12012 -2.56055 -7.68066 -2.56055 -12.8008c0 -12.7998 2.56055 -20.4785 7.67969 -25.5996c-33.2793 -2.55957 -58.8799 -10.2402 -79.3594 -23.04c-35.8398 -20.4785 -38.4004 -48.6387 -38.4004 -61.4385c0 -35.8408 33.2803 -76.8008 104.96 -76.8008z
M435.2 192v25.5996h-51.2002v51.2002h-25.5996v-51.2002h-51.2002v-25.5996h51.2002v-51.2002h25.5996v51.2002h51.2002z" />
    <glyph glyph-name="uniF139" unicode="&#xf139;" 
d="M383.289 447.797c70.6494 0 128.305 -57.6553 128.711 -128.305v-254.984c0 -70.6494 -57.6562 -128.305 -128.305 -128.305h-255.391c-70.6484 0 -128.305 57.6553 -128.305 127.898v255.391c0 70.6494 57.6562 128.305 128.305 128.305h254.984zM170.531 33.6494
v211.134h-73.085v-211.134h73.085zM133.583 277.266c20.3008 0 36.9482 16.6475 37.3545 37.3545c0 20.707 -16.6475 37.3545 -37.3545 37.3545s-37.3545 -16.6475 -37.3545 -37.3545s16.6475 -37.3545 37.3545 -37.3545zM414.554 33.6494v115.718
c0 57.25 -11.7754 95.8223 -78.7695 95.8223c-32.4824 0 -53.1895 -12.5869 -62.1221 -28.8281h-1.62402v28.4219h-56.8438v-211.134h60.9043v103.943c0 28.0156 5.68359 54.8135 40.1963 54.8135c33.7002 0 36.9482 -31.6699 36.9482 -56.4375v-102.319h60.9043h0.40625z
" />
    <glyph glyph-name="uniF10D" unicode="&#xf10d;" 
d="M477.688 320.501c22.8828 -39.2197 34.3096 -82.0566 34.2979 -128.499c0 -46.4424 -11.4434 -89.2773 -34.334 -128.506c-22.8867 -39.2197 -53.9395 -70.2725 -93.1631 -93.1592c-39.2197 -22.8936 -82.0557 -34.3369 -128.502 -34.3369
c-24.667 0 -48.8877 3.54785 -72.667 10.6592c13.1133 20.666 21.7793 38.8926 26.001 54.6631c2.00098 7.55469 8.00195 31.0049 18.0029 70.333c4.44336 -8.66992 12.5557 -16.166 24.3311 -22.502c11.7822 -6.3291 24.4492 -9.49805 38.001 -9.49805
c26.8975 0 50.8955 7.61133 72.0078 22.8379c21.1162 15.2197 37.4512 36.1641 49.0049 62.8291c11.5518 26.6699 17.3291 56.6689 17.3291 90.001c0 25.333 -6.6084 49.1123 -19.833 71.3379c-13.2246 22.2246 -32.3877 40.333 -57.5039 54.334
c-25.1074 14 -53.4355 20.999 -84.9971 20.999c-23.335 0 -45.1113 -3.22266 -65.334 -9.66699c-20.2227 -6.44531 -37.3916 -14.999 -51.498 -25.665c-14.1123 -10.6621 -26.2227 -22.9404 -36.3369 -36.835c-10.1094 -13.8896 -17.5566 -28.2764 -22.3311 -43.1689
c-4.77832 -14.8877 -7.16797 -29.7764 -7.16797 -44.666c0 -23.1055 4.44531 -43.4424 13.335 -60.999c8.88672 -17.5566 21.8896 -29.8936 38.998 -36.998c6.66699 -2.66895 10.8926 -0.447266 12.668 6.66406c0.441406 1.55176 1.33496 5.00391 2.66309 10.334
c1.33496 5.33008 2.22168 8.66211 2.66699 9.99609c1.33496 5.11523 0.111328 9.89258 -3.66602 14.3369c-11.332 13.5518 -16.999 30.332 -16.999 50.335c0 33.5537 11.6104 62.3896 34.834 86.5039c23.2227 24.1104 53.6152 36.168 91.1641 36.168
c33.5586 0 59.7246 -9.11621 78.5039 -27.3398c18.7822 -18.2178 28.1719 -41.8857 28.1719 -71.002c0 -37.7754 -7.60742 -69.8877 -22.8301 -96.3389c-15.2266 -26.4424 -34.7246 -39.6631 -58.502 -39.6631c-13.5566 0 -24.4492 4.83887 -32.6709 14.5039
c-8.22363 9.67383 -10.7764 21.2842 -7.66797 34.8369c1.77637 7.77148 4.72363 18.167 8.83398 31.1641c4.11133 13.002 7.44238 24.4463 9.99707 34.3369c2.55664 9.88867 3.83984 18.2812 3.83984 25.165c0 11.1133 -2.99316 20.335 -8.99609 27.6709
c-6.00195 7.33203 -14.5566 10.998 -25.665 10.998c-13.7793 0 -25.4443 -6.33301 -35.002 -19.001c-9.55664 -12.6699 -14.3311 -28.4482 -14.3311 -47.333c0 -16.2305 2.77734 -29.7744 8.33496 -40.667l-33.0029 -139.343
c-3.77441 -15.5557 -5.21973 -35.2217 -4.33008 -58.998c-45.7793 20.2217 -82.7803 51.4414 -111.002 93.6738c-28.2227 42.2129 -42.332 89.2197 -42.332 141c0 46.4473 11.4424 89.2783 34.3389 128.504c22.8916 39.2236 53.9443 70.2764 93.1699 93.165
c39.2197 22.8906 82.0547 34.334 128.501 34.334c46.4492 0 89.2812 -11.4434 128.502 -34.334c39.2207 -22.8916 70.2734 -53.9453 93.167 -93.165z" />
    <glyph glyph-name="uniF13C" unicode="&#xf13c;" 
d="M225.143 69.2734v75.1377l18.335 0.0449219v-52.2969v-48.5674h-18.3242v11.0996c-0.663086 -0.708008 -1.0332 -1.08984 -1.38184 -1.4834c-3.94336 -4.44824 -8.41504 -8.15625 -14.1221 -10.1221c-2.78613 -0.955078 -5.65137 -1.28125 -8.58301 -0.775391
c-4 0.663086 -6.68457 2.96582 -8.30273 6.60645c-1.50488 3.3584 -1.8877 6.9541 -1.89844 10.5713c-0.0449219 13.3691 -0.0224609 84.126 -0.0224609 84.8105h18.2783c0.0341797 -0.617188 0.101562 -51.4092 0.112305 -76.1826
c0 -1.34766 0.0117188 -2.72949 0.28125 -4.04395c0.673828 -3.3252 3.22461 -4.75195 6.42676 -3.58398c3.68457 1.34863 6.49316 3.8877 8.85254 6.93164c0.348633 0.438477 0.348633 1.22461 0.348633 1.85352zM311.773 136.424
c2.28027 -4.86621 2.9209 -10.0557 2.9209 -15.3359c0.0332031 -19.0869 0.0332031 -38.1748 0.0107422 -57.2627c-0.0107422 -3.57324 -0.381836 -7.10059 -1.5166 -10.5273c-2.44922 -7.37012 -7.8418 -11.1221 -15.5938 -11.043
c-6.30273 0.0556641 -11.4141 2.56055 -15.627 7.13379c-0.472656 0.504883 -1.77539 1.88672 -1.77539 1.88672v-7.66113h-18.3574v136.558h18.3574v-44.9502s1.0332 2.06738 1.97754 3.13477c2.8418 3.17871 6.30273 5.63965 10.5713 6.71777
c7.04395 1.76367 15.167 -0.416016 19.0322 -8.65039zM295.797 66.1045c0.0224609 18.0557 0.0566406 36.0986 -0.0332031 54.1396c-0.0117188 1.91016 -0.573242 3.89844 -1.28125 5.68555c-0.943359 2.34766 -2.96582 3.51562 -5.50488 3.76367
c-2.97656 0.291992 -5.3584 -0.910156 -7.51562 -2.82031c-0.865234 -0.75293 -1.25879 -1.87598 -1.25879 -1.87598l0.0449219 -60.6338v-1.49414s0.517578 -0.696289 0.595703 -0.787109c1.75293 -1.89844 3.79785 -3.40332 6.41504 -3.94336
c4.31445 -0.886719 7.3584 0.910156 8.20117 4.91016c0.213867 1 0.336914 2.0332 0.336914 3.05566zM245.763 255.448c-4.28027 0 -7.76367 3.4834 -7.7627 7.7627v54.7695c0 4.2793 3.4834 7.7627 7.7627 7.7627s7.76172 -3.48145 7.76172 -7.7627v-54.7695
c0 -4.28125 -3.48145 -7.7627 -7.76172 -7.7627zM190.888 180.159v-19.5244h-21.4697v-117.033h-20.6943v116.988h-21.4248v19.5693h63.5889zM364.217 79.4072h18.8857s0.280273 -15.29 -2.1123 -22.2666c-3.17969 -9.31348 -9.75195 -14.4814 -19.3916 -15.8975
c-5.97656 -0.875977 -11.8975 -0.75293 -17.5039 1.78613c-7.67285 3.46094 -12.0205 9.71875 -13.8857 17.6836c-0.865234 3.70801 -1.29199 7.59473 -1.33691 11.4033c-0.145508 14.9531 -0.078125 29.918 -0.0449219 44.8711
c0.0117188 7.81934 1.87598 15.0322 7.23535 21.0205c6.11133 6.8418 13.9307 9.39258 22.8623 8.81934c2.68555 -0.168945 5.42676 -0.606445 7.97656 -1.44922c8.68457 -2.85352 13.3242 -9.3584 15.1445 -17.9873c0.696289 -3.3252 0.955078 -6.77441 1.01074 -10.1787
c0.146484 -7.97656 -0.0556641 -25.5586 -0.0556641 -25.5586h-35.1533v-25.1992c0 -4.52734 3.66211 -8.19043 8.19043 -8.19043c4.51562 0 8.17871 3.66309 8.17871 8.19043v12.9531zM347.848 121.424v-14.1445h16.3691v14.1445
c0 4.5166 -3.66309 8.19043 -8.17871 8.19043c-4.52832 0 -8.19043 -3.67383 -8.19043 -8.19043zM0 448h512v-512h-512v512zM288.434 341.281v-86.6855c0.0195312 -2.53027 0.469727 -5.1416 1.21582 -7.56543c2.24023 -7.27539 8.22363 -9.49512 15.249 -8.12305
c4.57617 0.895508 8.48828 3.16406 11.9414 6.20605c1.94824 1.7168 3.7207 3.62793 5.79785 5.67383l-0.0224609 -10.8916h18.7861l0.00488281 101.386h-18.7803v-75.1807c0 -0.639648 0.0625 -1.45312 -0.28125 -1.88867
c-2.41992 -3.05176 -5.27441 -5.6416 -9.01465 -6.93555c-3.06836 -1.06348 -5.42383 0.435547 -5.98926 3.62207c-0.179688 1.00488 -0.261719 2.04004 -0.261719 3.06445v77.3184h-18.6455zM245.763 343.819c-14.8584 0 -26.9014 -12.043 -26.9004 -26.9004v-52.6445
c0 -14.8564 12.043 -26.9004 26.9004 -26.9004v0c14.8564 0 26.9004 12.0439 26.9004 26.9004v52.6445c0 14.8574 -12.0439 26.9004 -26.9004 26.9004v0zM173.399 377.143h-21.3779s16.4248 -54.4736 23.7705 -78.7676
c0.263672 -0.87793 0.384766 -1.83203 0.384766 -2.75195l-0.0078125 -55.7061h19.7139l-0.00878906 55.7061c0 0.919922 0.120117 1.875 0.384766 2.75195c7.3457 24.2939 23.7705 78.7676 23.7705 78.7676h-21.3789s-8.54395 -36.2891 -12.6221 -53.4795h-0.00683594
c-4.07812 17.1904 -12.6221 53.4795 -12.6221 53.4795zM408.47 53.8135v112.078c0 24.9072 -19.9072 45.2637 -44.8145 45.792c-71.7568 1.53906 -143.546 1.53906 -215.313 0c-24.8965 -0.52832 -44.8037 -20.8848 -44.8037 -45.792v-112.078
c0 -24.918 19.9072 -45.2754 44.8037 -45.8037c71.7676 -1.53906 143.557 -1.53906 215.313 0c24.9072 0.52832 44.8145 20.8857 44.8145 45.8037z" />
    <glyph glyph-name="uniF132" unicode="&#xf132;" 
d="M479.374 448c18.0293 0 32.6621 -14.5967 32.626 -32.6621v-446.676c0 -18.0293 -14.6328 -32.6621 -32.6621 -32.6621h-446.64c-18.0654 0 -32.6982 14.6328 -32.6982 32.6621v446.676c0 18.0293 14.6328 32.6621 32.6982 32.6621h446.676zM424.71 136.017
c-11.4893 11.7061 -33.8184 25.8691 -34.6855 40.4297c-1.08398 18.3896 26.375 43.1748 34.6494 54.3037c14.1992 19.0039 27.748 61.8545 27.748 61.8545l-86.6406 0.541992s-30.8555 -79.2695 -66.9854 -98.2021c-25.7246 17.126 6.07031 75.873 -12.7178 96.9736
c-12.9346 14.5244 -92.9629 10.6221 -95.9248 -8.09277c8.7793 -2.56543 17.2695 -5.20312 20.8105 -12.7549c8.8877 -18.6426 6.28613 -74.2832 -8.05664 -76.126c-8.81641 -1.12012 -16.873 12.6094 -21.9678 19.6191c-6.06934 8.4541 -11.959 15.9697 -17.3057 25.4355
c-6.28711 11.1279 -30.0244 54.3037 -30.0244 54.3037l-73.9951 -0.25293s25.9414 -65.251 43.8984 -95.6367c37.0693 -62.7217 79.0889 -127.358 183.722 -110.884c6.68457 17.8848 0.794922 44.1152 19.6191 45.0547c10.4775 0.469727 18.1729 -11.7061 24.2793 -18.499
c6.71973 -7.51465 10.8389 -14.2344 17.8477 -19.9072c14.8857 -11.959 29.5547 -11.417 54.3037 -10.3691c21.6787 0.867188 44.0068 -4.58887 47.4033 10.3691c3.68457 16.2949 -16.6201 32.2998 -25.9775 41.8389z" />
    <glyph glyph-name="uniF131" unicode="&#xf131;" 
d="M484.766 448c15.0439 0 27.2344 -12.1953 27.2344 -27.2344v-457.531c0 -15.0391 -12.1904 -27.2344 -27.2344 -27.2344h-457.531c-15.0439 0 -27.2344 12.1953 -27.2344 27.2344v457.531c0 15.0391 12.1904 27.2344 27.2344 27.2344h457.531zM407.797 159.63
c-12.5713 12.2822 -13.3877 19.4062 -3.26758 33.5898c11.0459 15.4639 22.9258 30.3447 34.0527 45.7314c10.415 14.3906 21.0635 28.749 26.5322 45.9766c3.46875 10.9697 0.391602 15.8066 -10.8398 17.7402c-1.94434 0.321289 -3.9541 0.34375 -5.91504 0.34375
l-66.7012 0.0703125c-8.21387 0.130859 -12.7568 -3.45312 -15.6602 -10.7354c-3.92188 -9.84277 -7.96875 -19.6797 -12.6367 -29.1729c-10.6045 -21.5312 -22.4346 -42.3438 -39.0371 -59.9639c-3.66016 -3.88965 -7.71777 -8.79688 -13.835 -6.77637
c-7.64746 2.78906 -9.8916 15.4033 -9.77637 19.6631l-0.0654297 76.9795c-1.4873 10.9971 -3.91699 15.8994 -14.8428 18.0342l-69.2891 -0.0107422c-9.2373 0 -13.8896 -3.57324 -18.8242 -9.35742c-2.84277 -3.33887 -3.69824 -5.50684 2.15137 -6.61816
c11.4932 -2.17871 17.9854 -9.62402 19.7012 -21.1494c2.74512 -18.4268 2.55469 -36.9238 0.963867 -55.4219c-0.457031 -5.40234 -1.38281 -10.7734 -3.52344 -15.8281c-3.34961 -7.9248 -8.76367 -9.53223 -15.8672 -4.65137
c-6.42676 4.41699 -10.9473 10.6543 -15.376 16.9014c-16.6123 23.4756 -29.8809 48.793 -40.6934 75.4004c-3.12109 7.67969 -8.50781 12.3418 -16.6562 12.4678c-19.9951 0.321289 -40.0117 0.375977 -60.0342 -0.0224609
c-12.0322 -0.222656 -15.6221 -6.06738 -10.7139 -16.9883c21.7871 -48.4814 46.0469 -95.6133 77.7256 -138.551c16.2529 -22.0156 34.9082 -41.4824 59.0322 -55.2627c27.3271 -15.6162 56.7451 -20.3223 87.7373 -18.8623
c14.5049 0.669922 18.8623 4.44434 19.543 18.9053c0.447266 9.89746 1.57422 19.7451 6.45508 28.623c4.79883 8.7207 12.0586 10.377 20.4141 4.95117c4.17285 -2.72266 7.70215 -6.1709 11.0303 -9.83691c8.16504 -8.91602 16.041 -18.1318 24.5107 -26.7656
c10.6318 -10.8223 23.2363 -17.1953 39.0645 -15.8936l61.3096 -0.0166016c9.87988 0.648438 15 12.7568 9.33008 23.7812c-3.98145 7.72852 -9.21094 14.5918 -14.7559 21.2373c-12.5332 15.0488 -27.2881 27.8711 -41.2432 41.4883z" />
    <glyph glyph-name="uniF123" unicode="&#xf123;" 
d="M0 448h512v-512h-512v512zM364.062 34.4727h-0.00390625v56.3154c-18.2354 -12.2383 -36.0996 -18.2383 -53.2803 -18.2383c-8.11328 0 -17.1797 2.52148 -27.4072 7.46484c-6.00098 4.12598 -9.61426 8.65918 -10.6709 13.7051
c-3.06836 6.13574 -4.9082 19.2949 -4.9082 39.6797v89.7568h81.8828v54.5781h-81.8828v91.4961h-48.3389c-4.02246 -21.3066 -8.14648 -36.4756 -12.1357 -45.6787c-5.04492 -11.1826 -13.1904 -21.3066 -24.374 -30.3398
c-11.1807 -9.20508 -22.7705 -15.7158 -35.0078 -19.874v-50.1816h38.0781v-123.3c0 -14.1123 2.01074 -26.25 6.13574 -36.5098c2.93164 -8.1123 9.03418 -16.0898 18.2373 -24.374c7.05762 -7.05664 17.1807 -13.1592 30.375 -18.2373
c16.2275 -3.98828 30.3408 -5.96582 42.6113 -5.96582c14.249 0 27.4092 1.46484 39.5439 4.5c14.25 3.06836 27.9541 8.14648 41.1455 15.2031z" />
    <glyph glyph-name="uniF104" unicode="&#xf104;" 
d="M512 362.661v-341.322c0 -44.8398 -40.4824 -85.3389 -85.333 -85.3389h-91.0225v193.422h85.333v85.334h-85.333v33.9961c0 13.7275 8.80664 22.8926 16.3555 22.8926h68.9775v85.333h-68.9775c-52.9463 0 -96 -51.6377 -96 -108.977v-33.2451h-62.5781v-85.334h62.5781
v-193.422h-170.661c-44.8564 0 -85.3389 40.499 -85.3389 85.3389v341.322c0 44.8398 40.4824 85.3389 85.333 85.3389h341.334c44.8506 0 85.333 -40.499 85.333 -85.3389z" />
    </font>
</defs>
</svg>
